<?xml version="1.0" encoding="UTF-8"?>
<svg version="1.1" xmlns="http://www.w3.org/2000/svg" width="1280" height="1280">
<path d="M0 0 C0.69672275 -0.00177501 1.39344549 -0.00355002 2.11128105 -0.00537882 C4.44394105 -0.01010661 6.77653889 -0.00774877 9.10920173 -0.00541991 C10.80650371 -0.00737369 12.50380523 -0.00976287 14.20110604 -0.01254788 C18.88123351 -0.01894771 23.5613438 -0.01910952 28.24147481 -0.01827047 C33.32727533 -0.01843997 38.4130697 -0.02434617 43.49886715 -0.02951133 C53.59330901 -0.03884042 63.68774649 -0.0427599 73.78219212 -0.0450303 C85.87063424 -0.04799158 97.95907052 -0.05668859 110.04750958 -0.06544458 C139.26820413 -0.08629345 168.48889901 -0.09676313 197.70959894 -0.10557419 C207.38799123 -0.10850878 217.06638331 -0.11187876 226.74477535 -0.1155414 C227.42770054 -0.11579969 228.11062573 -0.11605798 228.81424562 -0.1163241 C231.57723021 -0.11737035 234.3402148 -0.11841877 237.10319939 -0.11946992 C284.36832832 -0.13743528 331.63345761 -0.15281313 378.89858947 -0.16022895 C382.61088307 -0.16081292 386.32317667 -0.16141018 390.03547027 -0.16200657 C390.77186305 -0.16212469 391.50825584 -0.16224281 392.26696356 -0.16236451 C399.72751478 -0.16356188 407.188066 -0.16477064 414.64861722 -0.16599704 C416.14446639 -0.16624227 417.64031557 -0.16648613 419.13616474 -0.16672861 C467.16202317 -0.17451583 515.18785715 -0.19689333 563.21370489 -0.22940504 C597.72317916 -0.25275879 632.23264855 -0.27430634 666.74213058 -0.28141135 C667.45222809 -0.28155837 668.1623256 -0.28170539 668.89394122 -0.28185687 C684.48450192 -0.28504211 700.07506258 -0.28709271 715.66562356 -0.28808442 C721.93914132 -0.28849914 728.21265905 -0.28905403 734.48617679 -0.28964633 C735.51604774 -0.28973733 735.51604774 -0.28973733 736.56672416 -0.28983017 C758.66034502 -0.29184412 780.75393696 -0.30606756 802.84754774 -0.32659133 C825.73150597 -0.34777383 848.61543524 -0.35451502 871.4994041 -0.34471754 C884.68601564 -0.33950328 897.87251247 -0.34537664 911.0591075 -0.36725221 C919.87420862 -0.38076959 928.68923086 -0.37967495 937.50433279 -0.36685025 C942.52265435 -0.35995997 947.54075673 -0.35926233 952.55905863 -0.37641034 C990.6387017 -0.49850999 990.6387017 -0.49850999 1006.78006679 4.12880117 C1008.22003047 4.52181398 1009.66017565 4.91416242 1011.10050011 5.30585098 C1037.27389995 12.68717888 1060.89608224 26.88828308 1080.3474496 45.74305898 C1081.63275288 46.98630735 1082.93579756 48.2111522 1084.24100429 49.43348867 C1102.08976517 66.53072278 1114.4624494 89.13964162 1122.46756679 112.31630117 C1122.7411703 113.09207509 1123.01477382 113.86784902 1123.29666835 114.66713125 C1124.22227416 117.46605352 1125.00152869 120.2850944 1125.78006679 123.12880117 C1126.11692862 124.30240099 1126.45379046 125.47600082 1126.80086023 126.68516427 C1131.27603287 144.14302091 1130.34552058 162.30082483 1130.29393701 180.17966969 C1130.28371871 185.26798809 1130.29685795 190.35625803 1130.30691034 195.44456941 C1130.32131062 204.34804557 1130.32094754 213.25142459 1130.3107217 222.15490514 C1130.29555673 235.39495111 1130.30334488 248.63491552 1130.31555492 261.87496099 C1130.33537584 284.15559868 1130.33614626 306.43620458 1130.32524806 328.71684438 C1130.32491688 329.39425606 1130.3245857 330.07166774 1130.32424448 330.76960704 C1130.32391276 331.44811387 1130.32358104 332.12662069 1130.32323927 332.82568833 C1130.31313414 353.52262695 1130.31054672 374.21954981 1130.31532985 394.91649038 C1130.31563977 396.30411806 1130.31594839 397.69174575 1130.31625573 399.07937344 C1130.31749767 404.65610797 1130.31877234 410.23284249 1130.32009478 415.809577 C1130.32376226 431.39746583 1130.32604507 446.98535471 1130.32723933 462.57324392 C1130.32729392 463.28299447 1130.3273485 463.99274502 1130.32740474 464.72400316 C1130.3290411 487.32923954 1130.32453819 509.93447044 1130.31584102 532.5397051 C1130.31541953 533.63897408 1130.31541953 533.63897408 1130.31498952 534.76045051 C1130.31041009 546.66031339 1130.30553207 558.56017615 1130.30062882 570.46003891 C1130.28120447 617.65205038 1130.28210606 664.84401645 1130.30155116 712.03602773 C1130.30643619 723.92998418 1130.3112805 735.82394065 1130.31584102 747.71789724 C1130.31612281 748.45031787 1130.3164046 749.1827385 1130.31669494 749.9373537 C1130.32532367 772.51968933 1130.32897602 795.10202119 1130.32723933 817.68435842 C1130.32715783 818.74819586 1130.32715783 818.74819586 1130.32707468 819.83352497 C1130.32582459 835.40429004 1130.3232897 850.97505472 1130.31959732 866.5458194 C1130.31828084 872.11747556 1130.3170285 877.68913173 1130.31579448 883.26078791 C1130.31548492 884.64678594 1130.31517 886.03278397 1130.31484969 887.41878199 C1130.31008135 908.10852642 1130.31412938 928.79825309 1130.32424448 949.48799529 C1130.32474125 950.50411281 1130.32474125 950.50411281 1130.32524806 951.54075795 C1130.32574416 952.55498908 1130.32574416 952.55498908 1130.32625027 953.58970973 C1130.33729864 976.42709002 1130.33318584 999.26443385 1130.31212509 1022.10181004 C1130.30039064 1035.25959825 1130.29959778 1048.41727818 1130.31470978 1061.57506355 C1130.32369609 1070.37050261 1130.31806681 1079.16585508 1130.30069071 1087.96128133 C1130.2912009 1092.96813383 1130.28786902 1097.97477162 1130.30231464 1102.98161715 C1130.40405253 1140.99604725 1130.40405253 1140.99604725 1125.78006679 1157.12880117 C1125.48299343 1158.22303553 1125.18592007 1159.31726989 1124.87984449 1160.44466287 C1124.17842148 1162.9393826 1123.38853819 1165.37169677 1122.53006679 1167.81630117 C1122.23269618 1168.68021474 1121.93532558 1169.54412832 1121.62894374 1170.43422109 C1106.7741948 1212.45635483 1076.06009201 1245.82374482 1036.22440273 1265.48866445 C1018.84175266 1273.76592727 998.95515985 1280.24599511 979.56013358 1280.25760233 C978.86341083 1280.25937734 978.16668809 1280.26115235 977.44885253 1280.26298115 C975.11619253 1280.26770894 972.78359468 1280.26535111 970.45093185 1280.26302224 C968.75362987 1280.26497603 967.05632835 1280.2673652 965.35902753 1280.27015021 C960.67890007 1280.27655004 955.99878978 1280.27671185 951.31865877 1280.27587281 C946.23285825 1280.27604231 941.14706388 1280.2819485 936.06126642 1280.28711367 C925.96682456 1280.29644275 915.87238709 1280.30036224 905.77794145 1280.30263263 C893.68949934 1280.30559392 881.60106305 1280.31429092 869.51262399 1280.32304691 C840.29192945 1280.34389579 811.07123457 1280.35436546 781.85053464 1280.36317652 C772.17214234 1280.36611111 762.49375027 1280.36948109 752.81535822 1280.37314373 C752.13243303 1280.37340202 751.44950785 1280.37366031 750.74588796 1280.37392643 C747.98290336 1280.37497268 745.21991877 1280.37602111 742.45693418 1280.37707225 C695.19180525 1280.39503762 647.92667597 1280.41041546 600.66154411 1280.41783129 C596.94925051 1280.41841525 593.23695691 1280.41901252 589.52466331 1280.4196089 C588.78827052 1280.41972702 588.05187773 1280.41984514 587.29317001 1280.41996684 C579.83261879 1280.42116421 572.37206758 1280.42237298 564.91151636 1280.42359937 C563.41566718 1280.42384461 561.91981801 1280.42408846 560.42396883 1280.42433094 C512.3981104 1280.43211816 464.37227643 1280.45449567 416.34642868 1280.48700737 C381.83695442 1280.51036112 347.32748503 1280.53190868 312.818003 1280.53901368 C311.75285673 1280.53923422 311.75285673 1280.53923422 310.66619235 1280.5394592 C295.07563165 1280.54264444 279.485071 1280.54469505 263.89451001 1280.54568675 C257.62099226 1280.54610147 251.34747452 1280.54665637 245.07395679 1280.54724866 C244.04408584 1280.54733966 244.04408584 1280.54733966 242.99340942 1280.54743251 C220.89978856 1280.54944645 198.80619662 1280.56366989 176.71258584 1280.58419366 C153.82862761 1280.60537616 130.94469833 1280.61211736 108.06072948 1280.60231987 C94.87411793 1280.59710562 81.68762111 1280.60297898 68.50102608 1280.62485455 C59.68592495 1280.63837193 50.87090272 1280.63727728 42.05580079 1280.62445259 C37.03747923 1280.61756231 32.01937685 1280.61686467 27.00107495 1280.63401268 C-11.29606306 1280.75673212 -11.29606306 1280.75673212 -27.21993321 1276.12880117 C-28.90602248 1275.6634611 -30.59231658 1275.19886268 -32.27880037 1274.73495448 C-73.22031317 1263.352013 -108.14537059 1234.68932782 -129.21993321 1198.12880117 C-130.20606602 1196.45624257 -130.20606602 1196.45624257 -131.21212071 1194.74989492 C-142.15241794 1175.64559369 -150.33546416 1152.08267001 -150.34873438 1129.90886796 C-150.35050939 1129.21214521 -150.3522844 1128.51542246 -150.3541132 1127.79758691 C-150.35884099 1125.46492691 -150.35648315 1123.13232906 -150.35415429 1120.79966623 C-150.35610807 1119.10236425 -150.35849724 1117.40506273 -150.36128226 1115.70776191 C-150.36768208 1111.02763445 -150.36784389 1106.34752415 -150.36700485 1101.66739315 C-150.36717435 1096.58159263 -150.37308055 1091.49579826 -150.37824571 1086.4100008 C-150.3875748 1076.31555894 -150.39149428 1066.22112147 -150.39376468 1056.12667583 C-150.39672596 1044.03823372 -150.40542297 1031.94979743 -150.41417896 1019.86135837 C-150.43502783 990.64066383 -150.44549751 961.41996895 -150.45430857 932.19926902 C-150.45724316 922.52087672 -150.46061314 912.84248465 -150.46427578 903.1640926 C-150.46453407 902.48116741 -150.46479236 901.79824223 -150.46505848 901.09462233 C-150.46610473 898.33163774 -150.46715315 895.56865315 -150.4682043 892.80566856 C-150.48616966 845.54053963 -150.5015475 798.27541035 -150.50896333 751.01027849 C-150.5095473 747.29798489 -150.51014456 743.58569129 -150.51074095 739.87339769 C-150.51085907 739.1370049 -150.51097719 738.40061211 -150.51109889 737.64190439 C-150.51229625 730.18135317 -150.51350502 722.72080195 -150.51473142 715.26025074 C-150.51497665 713.76440156 -150.51522051 712.26855239 -150.51546299 710.77270321 C-150.52325021 662.74684478 -150.54562771 614.72101081 -150.57813942 566.69516306 C-150.60149317 532.1856888 -150.62304072 497.67621941 -150.63014573 463.16673738 C-150.63029275 462.45663986 -150.63043977 461.74654235 -150.63059125 461.01492673 C-150.63377649 445.42436603 -150.63582709 429.83380538 -150.63681879 414.24324439 C-150.63723352 407.96972664 -150.63778841 401.6962089 -150.63838071 395.42269117 C-150.63847171 394.39282022 -150.63847171 394.39282022 -150.63856455 393.3421438 C-150.6405785 371.24852294 -150.65480194 349.15493099 -150.67532571 327.06132022 C-150.6965082 304.17736199 -150.7032494 281.29343271 -150.69345192 258.40946386 C-150.68823766 245.22285231 -150.69411102 232.03635549 -150.71598659 218.84976046 C-150.72950397 210.03465933 -150.72840932 201.21963709 -150.71558463 192.40453517 C-150.70869435 187.3862136 -150.70799671 182.36811123 -150.72514472 177.34980933 C-150.84737235 139.27159826 -150.84737235 139.27159826 -146.21993321 123.12880117 C-145.92834759 122.04571717 -145.63676197 120.96263317 -145.33634043 119.84672844 C-144.6511506 117.38186743 -143.87696939 114.98068708 -143.03243321 112.56630117 C-142.73619054 111.70609365 -142.43994786 110.84588613 -142.13472813 109.95961171 C-127.20242816 67.86786652 -96.58754125 34.47709284 -56.66426915 14.76893789 C-39.28161908 6.49167506 -19.39502628 0.01160723 0 0 Z " fill="#563D7C" transform="translate(150.21993321180344,-0.128801167011261)"/>
<path d="M0 0 C501.18715596 0 501.18715596 0 567 61 C567.59296875 61.52722656 568.1859375 62.05445313 568.796875 62.59765625 C596.29853693 88.20039391 610.54785036 131.77790221 612.10014343 168.36003113 C612.14640863 170.71576992 612.16439677 173.06959636 612.16796875 175.42578125 C612.17220352 176.28753464 612.17643829 177.14928802 612.18080139 178.03715515 C612.19059878 180.79565426 612.1907391 183.55398675 612.1875 186.3125 C612.18659363 187.72486938 612.18659363 187.72486938 612.18566895 189.16577148 C612.15096464 209.02171276 610.94091126 227.71975548 606 247 C605.70222656 248.22203125 605.40445313 249.4440625 605.09765625 250.703125 C597.23290355 280.81196366 576.38977009 308.19671356 552 327 C551.09765625 327.7528125 550.1953125 328.505625 549.265625 329.28125 C538.73094017 337.86506727 526.87076601 344.44441411 515 351 C513.94244507 351.58491211 513.94244507 351.58491211 512.86352539 352.18164062 C511 353 511 353 508 353 C508 353.66 508 354.32 508 355 C508.63421875 355.12375 509.2684375 355.2475 509.921875 355.375 C542.42752338 362.5585687 572.16845792 381.30329326 596 404 C597.07701172 404.99773437 597.07701172 404.99773437 598.17578125 406.015625 C628.66329536 435.09790299 647.25913032 483.92440532 649.10656738 525.39201355 C649.16415163 528.07420613 649.19049306 530.75471853 649.203125 533.4375 C649.21357849 534.92210724 649.21357849 534.92210724 649.22424316 536.43670654 C649.24159636 539.62451442 649.24796579 542.81214682 649.25 546 C649.25100708 547.08446411 649.25201416 548.16892822 649.25305176 549.28625488 C649.24329899 564.76159546 648.83050692 579.74942393 646 595 C645.71749947 596.7185449 645.43626034 598.43729761 645.15625 600.15625 C639.53169058 632.87784153 623.82713629 664.10030522 602 689 C601.28457031 689.825 600.56914063 690.65 599.83203125 691.5 C575.12359123 719.48832144 544.76759262 737.83832487 510.41748047 752.00146484 C508.42843341 752.82303649 506.44910726 753.6681033 504.47265625 754.51953125 C494.88079842 758.48987976 484.77630248 760.83827491 474.72119141 763.32421875 C472.40739325 763.89882787 470.09966005 764.49146299 467.79296875 765.09375 C448.52457749 769.93525054 428.75851951 772.92015476 408.97807312 774.63105774 C408.23748969 774.6954347 407.49690625 774.75981165 406.7338809 774.82613943 C388.82152285 776.34211399 370.94763393 776.41113977 352.98293687 776.34821819 C348.1548421 776.33483591 343.32675313 776.33952012 338.49864483 776.34167194 C329.18486955 776.3432479 319.87118314 776.32958445 310.55743052 776.31016796 C299.75291917 776.28833045 288.94845908 776.28617088 278.1439209 776.28381348 C249.70010013 776.26814506 221.25629867 776.22626127 192.8125 776.1875 C129.184375 776.125625 65.55625 776.06375 0 776 C0 519.92 0 263.84 0 0 Z " fill="#FEFEFE" transform="translate(360,252)"/>
<path d="M0 0 C47.581875 -0.061875 47.581875 -0.061875 96.125 -0.125 C106.10508301 -0.14320801 116.08516602 -0.16141602 126.36767578 -0.18017578 C138.64624023 -0.18920898 138.64624023 -0.18920898 144.41207886 -0.19088745 C148.40030182 -0.192735 152.3884704 -0.20016637 156.37667847 -0.21115112 C161.49152902 -0.22504854 166.6063025 -0.22894976 171.72117019 -0.22614455 C173.58104377 -0.22672961 175.44092054 -0.23058797 177.30077767 -0.23843026 C187.14242594 -0.27794175 196.87452698 0.02702591 206.68112183 0.90090942 C208.01763454 1.0196526 208.01763454 1.0196526 209.3811475 1.14079463 C238.77226958 4.00191855 267.44276181 15.84225409 287.67578125 37.8203125 C295.61962392 47.71264489 301.00141793 59.76471425 304 72 C304.18046875 72.6590332 304.3609375 73.31806641 304.546875 73.99707031 C312.63201365 103.86564841 310.19139214 138.82615167 295.34375 166.03515625 C282.09001895 188.26016279 259.15618684 201.28463804 234.63769531 207.609375 C217.28156943 211.77090863 200.45874196 213.29799849 182.66235352 213.22705078 C180.62802863 213.2264368 178.59370332 213.22670732 176.55937862 213.2277813 C171.15472963 213.22822932 165.75017079 213.21671186 160.34554291 213.20256042 C155.25766239 213.1910961 150.16980282 213.19063016 145.08190918 213.18920898 C130.24209437 213.17875095 115.40229602 213.15082842 100.5625 213.125 C67.376875 213.08375 34.19125 213.0425 0 213 C0 142.71 0 72.42 0 0 Z " fill="#563D7C" transform="translate(531,682)"/>
<path d="M0 0 C29.720625 -0.0825 59.44125 -0.165 90.0625 -0.25 C99.40699463 -0.28641602 108.75148926 -0.32283203 118.37915039 -0.36035156 C129.89147949 -0.37841797 129.89147949 -0.37841797 135.30052185 -0.3817749 C139.03544344 -0.38546437 142.77013186 -0.40030325 146.50498962 -0.42230225 C186.95144108 -0.65011875 186.95144108 -0.65011875 206 4 C207.25921768 4.28510437 208.51843536 4.57020874 209.81581116 4.86395264 C212.56878892 5.50568939 215.27833342 6.23845259 218 7 C218.75925781 7.165 219.51851562 7.33 220.30078125 7.5 C238.98942074 12.02296485 256.18168045 25.53518022 266.14697266 41.76635742 C274.72744429 56.62256046 276.37412641 71.73216355 276.37060547 88.53759766 C276.37498243 90.86565212 276.4114613 93.19180905 276.44921875 95.51953125 C276.52482106 105.66419431 275.15683765 114.33957514 272 124 C271.62174072 125.16748779 271.24348145 126.33497559 270.85375977 127.5378418 C264.62455194 146.00638412 251.11535027 159.29573603 234.01123047 168.01367188 C213.5703836 177.86014718 193.12695999 181.48560143 170.62866211 181.34057617 C168.75425734 181.33972752 166.87985158 181.34020967 165.00544739 181.34190369 C159.97346674 181.34275578 154.94170564 181.32525903 149.9097755 181.30418181 C144.63009332 181.28528231 139.35040475 181.2836542 134.07069397 181.28010559 C124.09807579 181.27082379 114.12555762 181.24626295 104.15298325 181.21605712 C90.65920125 181.1760831 77.16539143 181.16002697 63.67156506 181.14255047 C42.4476353 181.1144386 21.22391646 181.05464344 0 181 C0 121.27 0 61.54 0 0 Z " fill="#563D7C" transform="translate(531,385)"/>
</svg>
