<?xml version="1.0" encoding="UTF-8"?>
<svg version="1.1" xmlns="http://www.w3.org/2000/svg" width="1200" height="900">
<path d="M0 0 C216.81 0 433.62 0 657 0 C657 10.1249053 657 10.1249053 656.55166626 15.25038147 C656.45151183 16.41728862 656.3513574 17.58419577 656.24816799 18.78646374 C656.08012708 20.67505847 656.08012708 20.67505847 655.90869141 22.60180664 C655.78937186 23.97476251 655.67039765 25.34774842 655.55173588 26.7207613 C655.22529496 30.48661583 654.89404268 34.25203391 654.56202483 38.01740026 C654.20234524 42.10661419 653.84726509 46.19622779 653.49165344 50.28579712 C652.86997776 57.42832403 652.24556185 64.57060709 651.61935425 71.71273804 C650.60878234 83.23953432 649.6038954 94.76682279 648.59985352 106.29418945 C648.25065427 110.30266058 647.90141916 114.31112858 647.5521698 118.31959534 C647.42072806 119.8282659 647.42072806 119.8282659 647.28663093 121.36741465 C646.65196588 128.65120038 646.01653944 135.93491946 645.3808136 143.21861267 C642.7379304 173.50147353 640.10847157 203.78547997 637.48828125 234.0703125 C637.39475215 235.15132547 637.30122305 236.23233845 637.20485973 237.34610939 C636.16235162 249.39587269 635.12023887 261.44567016 634.07830811 273.4954834 C633.02913876 285.62896257 631.97933628 297.76238691 630.92935467 309.89579582 C627.31596185 351.65164054 623.70469347 393.40766826 620.09765625 435.1640625 C619.94275488 436.95723153 619.78785337 438.75040055 619.63295174 440.54356956 C618.87998657 449.26007292 618.12704821 457.9765786 617.37411499 466.69308472 C617.30151693 467.53353051 617.22891887 468.37397631 617.15412086 469.23989016 C616.79225595 473.42909759 616.43039623 477.61830547 616.0685463 481.80751419 C610.73621443 543.54042302 605.37875552 605.27111746 600 667 C595.94647328 668.78970532 592.01799443 670.40476378 587.74267578 671.59619141 C586.74553558 671.87665817 585.74839539 672.15712494 584.72103882 672.4460907 C583.09955429 672.89429924 583.09955429 672.89429924 581.4453125 673.3515625 C580.27819733 673.67844559 579.11108215 674.00532867 577.90859985 674.34211731 C575.34422313 675.05965448 572.77942721 675.77542094 570.21374512 676.48825073 C566.02690398 677.65154978 561.8419407 678.82150772 557.65722656 679.99243164 C553.0831122 681.27196328 548.50884626 682.55094373 543.93395996 683.82771301 C531.73596705 687.23212523 519.54279631 690.65349888 507.3515625 694.08203125 C505.48809855 694.60604495 503.6246342 695.13005719 501.76116943 695.65406799 C498.93834055 696.44786982 496.11551438 697.24168126 493.29269791 698.03552723 C469.86956368 704.62236266 446.44425759 711.20153283 423.01167297 717.75467682 C420.73345847 718.39213599 418.45550962 719.03053686 416.1776123 719.66912842 C409.03436435 721.67029066 401.88722816 723.65477141 394.72949219 725.60351562 C392.05086018 726.33516401 389.37284281 727.06901788 386.6953125 727.8046875 C386.0529213 727.9810096 385.41053009 728.1573317 384.74867249 728.33899689 C376.30686384 730.66715482 368.04388324 733.29657908 359.8046875 736.2578125 C333.71805289 745.44387116 316.600293 743.12029695 290.74316406 733.96386719 C281.9387906 730.88709631 272.92620076 728.53762906 263.92901611 726.09976196 C258.63652486 724.65668977 253.35802215 723.16414444 248.078125 721.67578125 C245.90824815 721.0657578 243.738326 720.45589545 241.56835938 719.84619141 C240.48562744 719.54183167 239.40289551 719.23747192 238.28735352 718.92388916 C232.79084139 717.37913045 227.29385792 715.83605119 221.796875 714.29296875 C220.68133743 713.9798172 219.56579987 713.66666565 218.41645813 713.34402466 C216.12616199 712.70110258 213.8358635 712.05818885 211.54556274 711.4152832 C208.04034864 710.43128156 204.53518631 709.44709563 201.0300293 708.46289062 C181.37973438 702.94585454 161.7266077 697.43895087 142.07253265 691.9353981 C139.63665159 691.25326287 137.20079838 690.57102825 134.76495361 689.88876343 C119.42565032 685.59240649 104.08597233 681.29756954 88.73828125 677.03125 C87.69698059 676.74159363 86.65567993 676.45193726 85.58282471 676.15350342 C80.93890509 674.86178539 76.29450094 673.57188428 71.64892578 672.28613281 C70.08754287 671.85229356 68.52618058 671.41838007 66.96484375 670.984375 C66.27296463 670.79379517 65.58108551 670.60321533 64.86824036 670.40686035 C62.47693979 669.74050249 60.22621365 669.11310682 58 668 C56.81044076 664.43132227 56.55016085 660.97080382 56.23727417 657.24865723 C56.16692432 656.44662219 56.09657446 655.64458716 56.02409279 654.81824803 C55.78713711 652.10633784 55.55546581 649.39400154 55.32373047 646.68164062 C55.15381596 644.72432918 54.98358006 642.76704561 54.81304932 640.80978775 C54.34313907 635.40543518 53.87785267 630.00069278 53.41329718 624.59587765 C52.91097694 618.76089582 52.40445899 612.92627822 51.89846802 607.09161377 C50.96025557 596.26551308 50.02540142 585.4391255 49.0921277 574.61259803 C48.22143994 564.51246253 47.34904918 554.41247568 46.47509766 544.31262207 C46.41682937 543.63922333 46.35856108 542.96582459 46.29852709 542.27201983 C46.06171477 539.53524742 45.82489467 536.79847567 45.58806376 534.06170486 C42.57719767 499.26825694 39.57549007 464.4740205 36.5758618 429.67960219 C36.12966033 424.50387643 35.68341303 419.32815462 35.23713684 414.1524353 C30.63430251 360.77057282 26.03324499 307.38855702 21.44067228 254.00581062 C20.43393932 242.30388415 19.42704219 230.60197181 18.42002639 218.90006968 C18.30420182 217.55414417 18.18837865 216.20821855 18.07255688 214.8622928 C15.03223487 179.53196355 11.98191272 144.20253363 8.90792513 108.87511683 C8.58323309 105.14321454 8.2587257 101.41129621 7.93421781 97.67937791 C6.6381251 82.7746147 5.3417092 67.86988224 4.03715426 52.96585697 C3.53748034 47.25636963 3.03943588 41.54674183 2.5427503 35.83699375 C2.26585285 32.65490039 1.98775654 29.47291956 1.70784187 26.29109001 C1.41236757 22.93213164 1.11997861 19.57291879 0.82836914 16.21362305 C0.74288315 15.25135174 0.65739716 14.28908043 0.56932068 13.29764938 C0.49323578 12.41383717 0.41715088 11.53002495 0.33876038 10.61943054 C0.27276673 9.86559428 0.20677309 9.11175802 0.13877964 8.33507824 C-0.02607732 5.56122835 0 2.7787445 0 0 Z M124 138 C124.79890174 153.56555043 124.79890174 153.56555043 125.98046875 169.08886719 C126.07344742 170.15514343 126.16642609 171.22141968 126.26222229 172.32000732 C126.56754324 175.8125769 126.87750748 179.30471723 127.1875 182.796875 C127.41142647 185.34789498 127.63505075 187.89894149 127.85839844 190.45001221 C128.39062998 196.52114253 128.92574481 202.59201213 129.46235085 208.66275716 C130.09341679 215.80358655 130.72055694 222.94475855 131.34765625 230.0859375 C132.89735853 247.72405317 134.44875272 265.36202015 136 283 C138.97 316.99 141.94 350.98 145 386 C238.06 386 331.12 386 427 386 C425.68 403.82 424.36 421.64 423 440 C421.64449783 460.0104753 421.64449783 460.0104753 420.32543945 480.02319336 C420.02325098 483.71587758 419.54050114 487.33612956 419 491 C408.90745823 493.81853463 398.81442671 496.63530807 388.72078323 499.44989491 C384.03285616 500.75716968 379.34509365 502.06502817 374.65771484 503.37426758 C370.1258392 504.64004916 365.5935214 505.90423614 361.06090546 507.16736412 C359.34019198 507.64717686 357.61963286 508.12754355 355.89923859 508.60849953 C355.07592796 508.83862928 354.25261734 509.06875904 353.40435791 509.30586243 C352.6033261 509.52982728 351.80229429 509.75379213 350.97698879 509.9845438 C348.68146992 510.62125001 346.38239459 511.24352633 344.08259583 511.86456299 C341.58356118 512.5433592 339.15801726 513.28118878 336.69804382 514.10272217 C328.25686979 516.76539523 321.78594991 515.11298975 313.48828125 512.6015625 C312.10874582 512.20788077 310.7284496 511.81685659 309.34745789 511.42831421 C305.72432318 510.40144127 302.11233628 509.33979475 298.50170898 508.26989746 C294.91266084 507.2126352 291.31451958 506.187431 287.71679688 505.16015625 C282.34399097 503.62290861 276.97731024 502.06650386 271.61450195 500.49462891 C260.43076569 497.25598877 249.21200916 494.13936256 238 491 C236.35 469.88 234.7 448.76 233 427 C205.28 427 177.56 427 149 427 C150.18677931 444.20829993 151.38866362 461.38570667 152.91015625 478.5625 C153.08442 480.54930274 153.25852401 482.5361195 153.43247986 484.52294922 C153.79119575 488.61295042 154.15181662 492.70277748 154.51391602 496.79248047 C154.97721329 502.0270266 155.43542491 507.26200438 155.89228153 512.49711609 C156.24801081 516.56701269 156.60637357 520.63667406 156.96554375 524.70626831 C157.1358058 526.63907685 157.30524689 528.5719579 157.47383308 530.50491333 C157.70781367 533.18320861 157.94535011 535.86116531 158.18383789 538.5390625 C158.2859407 539.72013329 158.2859407 539.72013329 158.3901062 540.92506409 C158.72772692 544.67418619 159.16349489 548.32750804 160 552 C173.56206665 555.77239246 187.12460721 559.54307884 200.6875 563.3125 C201.69841831 563.59346149 202.70933662 563.87442299 203.75088882 564.16389847 C235.29268784 572.92975703 266.84411179 581.65972841 298.41088867 590.33520508 C299.09626017 590.52359829 299.78163166 590.7119915 300.48777199 590.9060936 C303.65348776 591.77627101 306.81930443 592.6460737 309.98535156 593.51504517 C311.07904053 593.81550751 312.17272949 594.11596985 313.29956055 594.42553711 C314.30586517 594.69808319 315.3121698 594.97062927 316.34896851 595.25143433 C318.49556871 595.85756489 320.61623189 596.55505349 322.72583008 597.27954102 C331.19324035 599.14273747 339.69064032 595.90029529 347.8125 593.59765625 C349.06627945 593.24835052 350.3200589 592.8990448 351.61183167 592.53915405 C354.32424835 591.78346588 357.03540602 591.02347251 359.74563599 590.25997925 C364.0589335 589.04490466 368.37481765 587.83920898 372.69116211 586.63500977 C377.20349606 585.37562834 381.71561754 584.11550605 386.22679138 582.85197449 C396.68902827 579.92168975 407.15666625 577.01151302 417.62890625 574.1171875 C418.34450085 573.91936865 419.06009544 573.7215498 419.79737473 573.51773643 C423.34800358 572.53622904 426.89870588 571.55498772 430.44946289 570.57394409 C439.40719126 568.0989671 448.36465459 565.62319481 457.31689453 563.12841797 C462.10280654 561.79642592 466.8935521 560.48561345 471.69076252 559.19494915 C474.68424125 558.38762457 477.6749602 557.57037046 480.66532707 556.75160408 C482.10640686 556.3596441 483.5487145 555.97216885 484.99225044 555.58935356 C486.98894883 555.05935455 488.9808603 554.51405796 490.97241211 553.96508789 C492.11407333 553.6574501 493.25573456 553.34981232 494.43199158 553.03285217 C495.27943436 552.69201096 496.12687714 552.35116974 497 552 C498.12722957 548.6183113 498.38510866 545.63111508 498.69403076 542.07540894 C498.78802591 541.01095478 498.78802591 541.01095478 498.88391995 539.9249965 C499.09374029 537.53866738 499.29831254 535.1519172 499.50292969 532.76513672 C499.65228329 531.05421749 499.80195971 529.34332641 499.95193481 527.63246155 C500.36043345 522.96188632 500.76439432 518.29092814 501.16760159 513.61989355 C501.59502482 508.67752718 502.02665098 503.73552788 502.45782471 498.79348755 C503.27994633 489.36318196 504.09835985 479.93255836 504.91543126 470.50181401 C505.91450562 458.97229589 506.9181278 447.44317458 507.921875 435.9140625 C508.97915547 423.76873812 510.03587245 411.62336601 511.08947754 399.47772217 C512.52993824 382.87519588 513.97085067 366.27275161 515.44095945 349.67281985 C515.6270167 347.57171486 515.81283015 345.47058845 515.99856949 343.36945534 C516.54369938 337.20462063 517.09089498 331.03998128 517.64227295 324.8757019 C517.82703219 322.79100301 518.01171029 320.70629692 518.19628906 318.62158203 C518.27943108 317.70218967 518.36257309 316.78279732 518.44823456 315.83554459 C518.52205605 314.99698803 518.59587753 314.15843147 518.67193604 313.29446411 C518.76784719 312.22146403 518.76784719 312.22146403 518.86569595 311.12678719 C519.01544032 308.75549305 519 306.37601752 519 304 C421.65 304 324.3 304 224 304 C224 300.37 224 296.74 224 293 C223.88205957 290.42026068 223.73648255 287.84156206 223.55688477 285.26538086 C223.50972321 284.57448364 223.46256165 283.88358643 223.41397095 283.17175293 C223.26028738 280.93583055 223.10109648 278.70034451 222.94140625 276.46484375 C222.83148854 274.89353391 222.72178675 273.32220895 222.61228943 271.75086975 C222.38361757 268.48224834 222.15215776 265.21383967 221.91870117 261.94555664 C221.61946593 257.75277898 221.32764419 253.55952242 221.03788853 249.36608028 C220.81360479 246.13261763 220.58530628 242.89944811 220.35578728 239.66635323 C220.24646117 238.11904439 220.138429 236.57164357 220.03170967 235.02415276 C219.88275328 232.87247524 219.72836639 230.72125553 219.57250977 228.57006836 C219.48590591 227.34638046 219.39930206 226.12269257 219.31007385 224.86192322 C219.1744208 222.05861731 219.1744208 222.05861731 218 220 C319.64 220 421.28 220 526 220 C527.27282429 210.4538178 528.45529336 200.99775156 529.2890625 191.41796875 C529.39721283 190.19773514 529.50536316 188.97750153 529.61679077 187.72029114 C529.84192443 185.16857542 530.06535041 182.61670848 530.28710938 180.06469727 C530.62576954 176.17866981 530.97273865 172.29344231 531.3203125 168.40820312 C531.53956275 165.91150221 531.7583296 163.41475879 531.9765625 160.91796875 C532.07965729 159.769832 532.18275208 158.62169525 532.28897095 157.43876648 C532.38261932 156.3467543 532.4762677 155.25474213 532.57275391 154.12963867 C532.65554596 153.18448898 532.73833801 152.23933929 532.82363892 151.26554871 C533.06212141 146.8497435 533 142.42224033 533 138 C398.03 138 263.06 138 124 138 Z " fill="#DF2E00" transform="translate(271,156)"/>
<path d="M0 0 C86.79 0 173.58 0 263 0 C259.60721529 42.97527294 259.60721529 42.97527294 258.17840576 56.78967285 C256.77346494 70.40909162 255.56434472 84.0197459 254.64379883 97.68115234 C253.86593416 109.20450286 252.75639106 120.68121798 251.56982422 132.16894531 C251.06356038 137.07057584 250.56136318 141.97261074 250.0625 146.875 C249.93178604 148.15831711 249.93178604 148.15831711 249.7984314 149.46755981 C248.40823346 163.19005012 247.26597183 176.91948117 246.25463867 190.67459106 C245.43052306 201.85462401 244.42243414 212.99031831 243.19726562 224.13476562 C241.6344757 238.76668999 240.56719529 253.44340086 239.44555664 268.11450195 C238.677555 278.0774462 237.83409126 288.01168269 236.68051147 297.93786621 C236.08520764 303.09059688 235.62918765 308.23708027 235.28259277 313.41201782 C234.57025184 324.01327477 233.68476183 334.58423697 232.625 345.15625 C231.48759599 356.66637668 230.44106877 368.18214902 229.46484375 379.70703125 C229.40190187 380.448944 229.33896 381.19085674 229.27411079 381.95525169 C228.76087884 388.01045168 228.25171431 394.06599198 227.74383545 400.12164307 C227.29931082 405.42116433 226.85253379 410.72048812 226.40234375 416.01953125 C226.34077465 416.74550632 226.27920555 417.4714814 226.21577072 418.21945572 C225.55734206 425.95427309 224.86378974 433.67832649 223.94140625 441.38671875 C222.94546302 449.73285387 222.39523454 458.1010158 221.82241821 466.48530579 C220.84415885 480.61784132 219.59581329 494.72526486 218.34057617 508.83544922 C217.99891975 512.67656794 217.66160491 516.51805476 217.32541561 520.35965538 C217.06201432 523.36413488 216.79639139 526.36841478 216.53009224 529.3726387 C216.40462495 530.79107258 216.27983724 532.20956677 216.15577507 533.62812424 C215.98363759 535.59261462 215.80817181 537.5568125 215.63256836 539.52099609 C215.48506386 541.18634903 215.48506386 541.18634903 215.33457947 542.88534546 C215.00524302 545.95119191 214.52277399 548.96199844 214 552 C213.89940159 553.40962351 213.82620349 554.82165457 213.7890625 556.234375 C213.76070312 556.97300781 213.73234375 557.71164062 213.703125 558.47265625 C213.65051468 560.00624703 213.60640823 561.54015043 213.5703125 563.07421875 C213.48668686 565.05684329 213.25328595 567.03184362 213 569 C209.61827471 571.25448353 206.39887476 572.08946462 202.51953125 573.06640625 C201.76764023 573.26097412 201.01574921 573.45554199 200.24107361 573.65600586 C198.61643189 574.07613872 196.99116644 574.49386539 195.36535645 574.90945435 C191.02273255 576.02034002 186.68515273 577.15053596 182.34765625 578.28125 C181.46846527 578.51018448 180.58927429 578.73911896 179.68344116 578.97499084 C171.67581259 581.06818768 163.70924231 583.2933565 155.75 585.5625 C144.81953259 588.67213433 133.86440734 591.66786184 122.875 594.5625 C122.16406189 594.74982697 121.45312378 594.93715393 120.72064209 595.13015747 C117.18130702 596.06225784 113.64155364 596.99275795 110.1015625 597.92236328 C93.36394808 602.31845429 76.65109939 606.78665486 60 611.5 C49.94720555 614.34435021 39.88624 617.15284077 29.79541016 619.85961914 C27.95286435 620.35410353 26.11117777 620.85178618 24.26953125 621.34960938 C16.20495252 623.49986064 8.18353661 625.24638501 0 627 C0 598.29 0 569.58 0 540 C15.065525 535.60588854 30.12682905 531.25392677 45.25390625 527.0859375 C47.214555 526.54431042 49.1751607 526.0025275 51.13572693 525.46060181 C56.25114247 524.04706109 61.36710955 522.63552747 66.48321533 521.2244873 C72.53713684 519.55438206 78.59038195 517.88182713 84.643713 516.20958328 C89.6572403 514.82470842 94.67098206 513.44062039 99.68521118 512.05828857 C109.13784698 509.45176523 118.58860947 506.83892553 128.03359699 504.20480156 C132.415595 502.9828158 136.79832494 501.76346637 141.18107414 500.54417801 C143.27440758 499.96092078 145.36735579 499.37627905 147.45990181 498.79020309 C150.34854759 497.9812259 153.23844926 497.17689255 156.12866211 496.37353516 C156.98735083 496.13167103 157.84603954 495.8898069 158.73074913 495.64061356 C159.51710054 495.42297726 160.30345196 495.20534096 161.1136322 494.98110962 C161.7958229 494.79050776 162.47801359 494.59990589 163.18087673 494.40352821 C165 494 165 494 168 494 C168.10826111 492.71217621 168.21652222 491.42435242 168.32806396 490.09750366 C172.02088523 446.20801877 175.8073847 402.32669617 179.61678314 358.44719315 C180.62713244 346.8089704 181.63551755 335.17058107 182.64134717 323.53196681 C183.36051741 315.21212629 184.08181942 306.89247228 184.8047359 298.57295644 C185.23252651 293.6492058 185.65940032 288.72537989 186.08396149 283.80134964 C186.47884446 279.22205012 186.87636017 274.64298688 187.27593613 270.06409454 C187.42163448 268.38917044 187.56637246 266.71416247 187.71007919 265.03906631 C187.9061173 262.7556785 188.10560805 260.47261766 188.30596924 258.18960571 C188.41654285 256.9139657 188.52711647 255.63832569 188.6410408 254.32402992 C189 251 189 251 190 246 C92.65 246 -4.7 246 -105 246 C-110 179 -110 179 -111 162 C-9.36 162 92.28 162 197 162 C197.66 153.42 198.32 144.84 199 136 C200.65 117.52 202.3 99.04 204 80 C136.68 80 69.36 80 0 80 C0 53.6 0 27.2 0 0 Z " fill="#F24000" transform="translate(600,214)"/>
<path d="M0 0 C32.34 0 64.68 0 98 0 C96.8470475 31.12971748 96.8470475 31.12971748 95.84375 44.921875 C95.73515177 46.45833096 95.62688436 47.99481034 95.5189209 49.53131104 C95.29650498 52.6833535 95.07115183 55.8351651 94.84326172 58.98681641 C94.55259146 63.00828958 94.2683594 67.03018787 93.98607635 71.05225754 C93.76500439 74.19574109 93.54135324 77.3390368 93.31684875 80.48227692 C93.21098016 81.9668866 93.10573086 83.45154059 93.00114441 84.93624115 C92.85548888 86.99642073 92.70652432 89.05633519 92.55664062 91.11621094 C92.47305298 92.2805365 92.38946533 93.44486206 92.30334473 94.64447021 C91.98918315 98.11965352 91.52275057 101.55054581 91 105 C85.68496912 107.05742157 80.3935601 108.83918571 74.90332031 110.36010742 C74.1380452 110.57512405 73.37277008 110.79014069 72.58430481 111.01167297 C70.08325183 111.71326225 67.58078028 112.40961854 65.078125 113.10546875 C63.32789646 113.59426382 61.57771408 114.0832242 59.82757568 114.57234192 C56.17364438 115.59256322 52.51896515 116.6100506 48.86376953 117.62573242 C44.17914178 118.92781744 39.49678608 120.23787672 34.814991 121.55010509 C31.20780001 122.55998916 27.59929079 123.56509482 23.99037933 124.56881142 C22.2627563 125.050038 20.53558405 125.53288595 18.80887604 126.01738548 C16.40029541 126.69256463 13.98997925 127.36115318 11.57910156 128.02807617 C10.86734268 128.22907928 10.1555838 128.4300824 9.42225647 128.63717651 C6.10897836 129.5465454 3.47250167 130 0 130 C0 87.1 0 44.2 0 0 Z " fill="#F24000" transform="translate(600,542)"/>
<path d="M0 0 C36.63 0 73.26 0 111 0 C111 27.72 111 55.44 111 84 C76.35 84 41.7 84 6 84 C5.195625 73.295625 4.39125 62.59125 3.5625 51.5625 C3.18460327 46.54784546 3.18460327 46.54784546 2.79907227 41.43188477 C2.59640929 38.72673332 2.39384748 36.0215743 2.19140625 33.31640625 C2.14024155 32.64020737 2.08907684 31.96400848 2.03636169 31.26731873 C1.98468338 30.58383865 1.93300507 29.90035858 1.87976074 29.19616699 C1.83444466 28.59872932 1.78912857 28.00129166 1.74243927 27.38574982 C1.0695854 18.25716531 0.53777712 9.14221096 0 0 Z " fill="#DF2E00" transform="translate(489,376)"/>
<path d="M0 0 C8.91 0 17.82 0 27 0 C28.28583984 2.77083984 28.28583984 2.77083984 29.59765625 5.59765625 C38.28061413 24.30730605 38.28061413 24.30730605 47 43 C54.21320865 28.76971225 61.10203402 14.38478272 68 0 C76.91 0 85.82 0 95 0 C95 27.72 95 55.44 95 84 C88.4 84 81.8 84 75 84 C74.67 68.49 74.34 52.98 74 37 C67.46083352 50.11793306 67.46083352 50.11793306 60.92602539 63.23803711 C60.10839432 64.87621851 59.2906149 66.51432589 58.47265625 68.15234375 C58.04593628 69.01089966 57.61921631 69.86945557 57.17956543 70.75402832 C56.77363159 71.56601685 56.36769775 72.37800537 55.94946289 73.21459961 C55.59638565 73.9229747 55.24330841 74.63134979 54.87953186 75.3611908 C54 77 54 77 53 78 C49.04 78 45.08 78 41 78 C34.4 64.8 27.8 51.6 21 38 C20.67 53.18 20.34 68.36 20 84 C13.4 84 6.8 84 0 84 C0 56.28 0 28.56 0 0 Z " fill="#000000" transform="translate(595,56)"/>
<path d="M0 0 C6.6 0 13.2 0 20 0 C20 11.55 20 23.1 20 35 C30.56 35 41.12 35 52 35 C52 23.45 52 11.9 52 0 C58.6 0 65.2 0 72 0 C72 27.72 72 55.44 72 84 C65.4 84 58.8 84 52 84 C52 73.44 52 62.88 52 52 C41.44 52 30.88 52 20 52 C20 62.56 20 73.12 20 84 C13.4 84 6.8 84 0 84 C0 56.28 0 28.56 0 0 Z " fill="#000000" transform="translate(440,56)"/>
<path d="M0 0 C22.11 0 44.22 0 67 0 C67 5.61 67 11.22 67 17 C59.08 17 51.16 17 43 17 C43 39.11 43 61.22 43 84 C36.73 84 30.46 84 24 84 C24 61.89 24 39.78 24 17 C16.08 17 8.16 17 0 17 C0 11.39 0 5.78 0 0 Z " fill="#000000" transform="translate(520,56)"/>
<path d="M0 0 C6.6 0 13.2 0 20 0 C20 22.11 20 44.22 20 67 C31.55 67 43.1 67 55 67 C55 72.61 55 78.22 55 84 C36.85 84 18.7 84 0 84 C0 56.28 0 28.56 0 0 Z " fill="#000000" transform="translate(704,56)"/>
</svg>
