<?xml version="1.0" encoding="UTF-8"?>
<svg version="1.1" xmlns="http://www.w3.org/2000/svg" width="1280" height="1280">
<path d="M0 0 C2.88882325 0.00545051 5.77763828 0.00781074 8.66646576 0.00987244 C38.41944517 0.04292616 67.9995241 0.67141694 97.65114594 3.31785583 C99.2969492 3.4588323 100.9427822 3.59946208 102.58864594 3.73973083 C170.15512275 9.59649492 237.0526799 22.67662723 301.65114594 43.31785583 C302.83450531 43.69265076 304.01786469 44.06744568 305.23708344 44.45359802 C348.41260265 58.19457085 390.59684752 76.29813444 429.65114594 99.31785583 C430.4563266 99.79078064 431.26150726 100.26370544 432.09108734 100.7509613 C448.66511576 110.53696802 464.61229135 121.29885157 479.65114594 133.31785583 C480.60376312 134.07711365 481.55638031 134.83637146 482.53786469 135.61863708 C488.76793848 140.64961718 494.74792876 145.90946716 500.65114594 151.31785583 C501.68192817 152.24415788 502.71320106 153.16991413 503.74489594 154.09519958 C516.96342013 166.01926932 528.09077679 178.99775441 538.65114594 193.31785583 C539.6527475 194.6578363 539.6527475 194.6578363 540.67458344 196.02488708 C559.43330763 221.87317605 573.92484486 253.13579118 573.98708344 285.44676208 C573.99374023 286.67587814 574.00039703 287.9049942 574.00725555 289.1713562 C574.0173288 291.76062029 574.02207424 294.34991006 574.0217514 296.93919373 C574.02610669 300.84516082 574.06243745 304.74997994 574.10036469 308.65574646 C574.1633433 322.41860353 573.61925086 335.10000432 569.65114594 348.31785583 C569.21294525 349.83367249 569.21294525 349.83367249 568.76589203 351.38011169 C567.97002251 353.95771253 567.09410754 356.47820867 566.15114594 359.00535583 C565.81639252 359.90979431 565.4816391 360.81423279 565.13674164 361.74607849 C558.57637531 378.83033523 549.55750587 394.65964312 538.65114594 409.31785583 C538.23123383 409.89181091 537.81132172 410.46576599 537.378685 411.05711365 C532.09884308 418.25764748 526.40691608 424.98065941 520.29567719 431.48582458 C517.89888408 434.0525528 515.5844753 436.67192803 513.27614594 439.31785583 C488.46376551 466.91169528 455.49085686 489.13612487 423.16725922 506.93113708 C421.39050608 507.91036839 419.61847116 508.89818414 417.8498764 509.89207458 C341.95812225 552.51365865 256.16828729 576.5153247 96.65114594 599.31785583 C94.94563316 599.44946106 94.94563316 599.44946106 93.20566559 599.58372498 C77.99370304 600.58862832 62.76219651 600.48255395 47.52463818 600.48511291 C45.11115993 600.48583184 42.69768709 600.48798186 40.28421021 600.49061012 C31.80756021 600.49982162 23.33092577 600.50395073 14.85427094 600.50315857 C7.04622341 600.50256047 -0.76175445 600.51307048 -8.5697844 600.52890223 C-15.34763344 600.54213807 -22.12546018 600.54733579 -28.90332198 600.54670316 C-32.91815261 600.54645261 -36.9329213 600.5490494 -40.94773865 600.55988121 C-66.65119146 600.62443364 -92.18314679 599.74204377 -117.72385406 596.56785583 C-118.74272202 596.44380371 -118.74272202 596.44380371 -119.78217316 596.31724548 C-183.38803165 588.55816375 -245.51962042 575.53368726 -306.34885406 555.31785583 C-307.19351227 555.03764587 -308.03817047 554.75743591 -308.90842438 554.46873474 C-339.55005569 544.22022742 -369.82958925 531.98120974 -398.20188141 516.47947693 C-400.31829175 515.3343916 -402.44840558 514.22139641 -404.58713531 513.11863708 C-436.70927565 496.52418721 -466.68863149 475.74660603 -493.34885406 451.31785583 C-494.39138979 450.37987432 -495.43438028 449.44239808 -496.47776031 448.50535583 C-525.49799848 422.29519874 -549.52979355 388.82168187 -561.34885406 351.31785583 C-561.68621582 350.28970764 -562.02357758 349.26155945 -562.37116241 348.20225525 C-563.51977596 344.14470332 -563.66557744 340.15785169 -563.68698883 335.9618988 C-563.69852493 335.1558017 -563.71006104 334.34970459 -563.72194672 333.5191803 C-563.7560946 330.86611389 -563.77473609 328.21328073 -563.79026031 325.56004333 C-563.79716322 324.64387363 -563.80406612 323.72770393 -563.81117821 322.78377151 C-563.84696799 317.92257281 -563.87052026 313.0614891 -563.88425446 308.20018005 C-563.89743109 304.21986575 -563.9320069 300.24068286 -563.98679352 296.26072693 C-564.55292334 254.25821029 -564.55292334 254.25821029 -556.34885406 237.31785583 C-555.87713776 236.18138611 -555.40542145 235.04491638 -554.91941071 233.87400818 C-553.73596703 231.04889652 -552.4582744 228.31179429 -551.09885406 225.56785583 C-550.63559723 224.61741394 -550.17234039 223.66697205 -549.69504547 222.68772888 C-509.59641404 142.22674821 -421.63039675 92.07262574 -305.10919952 46.7716217 C-224.48240691 19.92135034 -140.49100477 5.59321329 0 0 Z " fill="#6E81B6" transform="translate(636.3488540649414,338.68214416503906)"/>
<path d="M0 0 C2.88882325 0.00545051 5.77763828 0.00781074 8.66646576 0.00987244 C38.41944517 0.04292616 67.9995241 0.67141694 97.65114594 3.31785583 C99.2969492 3.4588323 100.9427822 3.59946208 102.58864594 3.73973083 C170.15512275 9.59649492 237.0526799 22.67662723 301.65114594 43.31785583 C302.83450531 43.69265076 304.01786469 44.06744568 305.23708344 44.45359802 C348.41260265 58.19457085 390.59684752 76.29813444 429.65114594 99.31785583 C430.4563266 99.79078064 431.26150726 100.26370544 432.09108734 100.7509613 C448.66511576 110.53696802 464.61229135 121.29885157 479.65114594 133.31785583 C480.60376312 134.07711365 481.55638031 134.83637146 482.53786469 135.61863708 C488.76793848 140.64961718 494.74792876 145.90946716 500.65114594 151.31785583 C501.68192817 152.24415788 502.71320106 153.16991413 503.74489594 154.09519958 C516.96342013 166.01926932 528.09077679 178.99775441 538.65114594 193.31785583 C539.6527475 194.6578363 539.6527475 194.6578363 540.67458344 196.02488708 C559.43330763 221.87317605 573.92484486 253.13579118 573.98708344 285.44676208 C573.99374023 286.67587814 574.00039703 287.9049942 574.00725555 289.1713562 C574.0173288 291.76062029 574.02207424 294.34991006 574.0217514 296.93919373 C574.02610669 300.84516082 574.06243745 304.74997994 574.10036469 308.65574646 C574.1633433 322.41860353 573.61925086 335.10000432 569.65114594 348.31785583 C569.21294525 349.83367249 569.21294525 349.83367249 568.76589203 351.38011169 C567.97002251 353.95771253 567.09410754 356.47820867 566.15114594 359.00535583 C565.81639252 359.90979431 565.4816391 360.81423279 565.13674164 361.74607849 C558.57637531 378.83033523 549.55750587 394.65964312 538.65114594 409.31785583 C538.23123383 409.89181091 537.81132172 410.46576599 537.378685 411.05711365 C532.09884308 418.25764748 526.40691608 424.98065941 520.29567719 431.48582458 C517.89888408 434.0525528 515.5844753 436.67192803 513.27614594 439.31785583 C488.46376551 466.91169528 455.49085686 489.13612487 423.16725922 506.93113708 C421.39050608 507.91036839 419.61847116 508.89818414 417.8498764 509.89207458 C341.95812225 552.51365865 256.16828729 576.5153247 96.65114594 599.31785583 C94.94563316 599.44946106 94.94563316 599.44946106 93.20566559 599.58372498 C77.99370304 600.58862832 62.76219651 600.48255395 47.52463818 600.48511291 C45.11115993 600.48583184 42.69768709 600.48798186 40.28421021 600.49061012 C31.80756021 600.49982162 23.33092577 600.50395073 14.85427094 600.50315857 C7.04622341 600.50256047 -0.76175445 600.51307048 -8.5697844 600.52890223 C-15.34763344 600.54213807 -22.12546018 600.54733579 -28.90332198 600.54670316 C-32.91815261 600.54645261 -36.9329213 600.5490494 -40.94773865 600.55988121 C-66.65119146 600.62443364 -92.18314679 599.74204377 -117.72385406 596.56785583 C-118.74272202 596.44380371 -118.74272202 596.44380371 -119.78217316 596.31724548 C-183.38803165 588.55816375 -245.51962042 575.53368726 -306.34885406 555.31785583 C-307.19351227 555.03764587 -308.03817047 554.75743591 -308.90842438 554.46873474 C-339.55005569 544.22022742 -369.82958925 531.98120974 -398.20188141 516.47947693 C-400.31829175 515.3343916 -402.44840558 514.22139641 -404.58713531 513.11863708 C-436.70927565 496.52418721 -466.68863149 475.74660603 -493.34885406 451.31785583 C-494.39138979 450.37987432 -495.43438028 449.44239808 -496.47776031 448.50535583 C-525.49799848 422.29519874 -549.52979355 388.82168187 -561.34885406 351.31785583 C-561.68621582 350.28970764 -562.02357758 349.26155945 -562.37116241 348.20225525 C-563.51977596 344.14470332 -563.66557744 340.15785169 -563.68698883 335.9618988 C-563.69852493 335.1558017 -563.71006104 334.34970459 -563.72194672 333.5191803 C-563.7560946 330.86611389 -563.77473609 328.21328073 -563.79026031 325.56004333 C-563.79716322 324.64387363 -563.80406612 323.72770393 -563.81117821 322.78377151 C-563.84696799 317.92257281 -563.87052026 313.0614891 -563.88425446 308.20018005 C-563.89743109 304.21986575 -563.9320069 300.24068286 -563.98679352 296.26072693 C-564.55292334 254.25821029 -564.55292334 254.25821029 -556.34885406 237.31785583 C-555.87713776 236.18138611 -555.40542145 235.04491638 -554.91941071 233.87400818 C-553.73596703 231.04889652 -552.4582744 228.31179429 -551.09885406 225.56785583 C-550.63559723 224.61741394 -550.17234039 223.66697205 -549.69504547 222.68772888 C-509.59641404 142.22674821 -421.63039675 92.07262574 -305.10919952 46.7716217 C-224.48240691 19.92135034 -140.49100477 5.59321329 0 0 Z M-448.34885406 142.31785583 C-449.40846344 143.1028949 -450.46807281 143.88793396 -451.55979156 144.69676208 C-459.60712375 150.73226123 -467.19469449 157.25731883 -474.73801422 163.90672302 C-476.75403926 165.6728074 -478.8039253 167.39790168 -480.84885406 169.13035583 C-484.04692546 171.929528 -486.7758087 174.99753807 -489.51682281 178.23973083 C-491.44652396 180.42864557 -493.49323166 182.42325353 -495.59885406 184.44285583 C-525.84874975 214.48801449 -545.79936717 257.28948798 -546.41526031 300.01707458 C-546.24641942 340.2085492 -530.06469047 377.82953087 -504.34885406 408.31785583 C-503.46987316 409.38289839 -502.59097209 410.44800685 -501.71213531 411.51316833 C-491.81782702 423.38970656 -481.15944265 434.65963704 -468.98947906 444.23191833 C-466.22594619 446.41494578 -463.57720309 448.70438559 -460.91135406 451.00535583 C-423.5186873 482.16591147 -377.72562415 505.35401709 -332.34885406 522.31785583 C-330.24402033 523.12862617 -328.13987062 523.94117421 -326.03635406 524.75535583 C-325.01654449 525.14610291 -323.99673492 525.53684998 -322.94602203 525.93943787 C-320.57911911 526.84642402 -318.21391024 527.75784557 -315.85056305 528.67405701 C-305.60071888 532.6139119 -295.22609203 535.99437063 -284.72385406 539.19285583 C-283.8861145 539.44942963 -283.04837494 539.70600342 -282.18524933 539.97035217 C-270.64395455 543.50043922 -259.06931756 546.88130215 -247.41135406 550.00535583 C-246.19947418 550.33197205 -244.9875943 550.65858826 -243.73899078 550.99510193 C-239.11898739 552.20769605 -234.59939403 553.382931 -229.84494781 553.89988708 C-226.58581144 554.28952685 -224.3291704 555.02933623 -221.34885406 556.31785583 C-206.24943422 560.23252024 -190.58367681 562.2855475 -175.21213531 564.83738708 C-174.41605865 564.96964188 -173.61998199 565.10189667 -172.7997818 565.23815918 C-168.82100044 565.898861 -164.84187465 566.5573407 -160.86203766 567.21165466 C-159.37191422 567.45767889 -157.88184133 567.70400945 -156.39182281 567.95066833 C-155.67488251 568.0691362 -154.9579422 568.18760406 -154.21927643 568.30966187 C-150.46229868 568.93803175 -146.73289342 569.63479676 -143.00901031 570.43504333 C-137.57815815 571.5565261 -132.12293314 571.92912271 -126.59885406 572.31785583 C-120.03663558 572.81619535 -113.53673535 573.34428562 -107.03635406 574.38035583 C-100.73272373 575.37037385 -94.46197015 575.71958759 -88.09372711 575.9763031 C-83.83830097 576.15295366 -79.68712564 576.50996678 -75.46115875 577.07933044 C-71.29342965 577.5499582 -67.10036839 577.65476515 -62.91135406 577.81785583 C-61.12087352 577.88786738 -59.33050317 577.96075917 -57.54026031 578.03660583 C-56.36765656 578.08204529 -56.36765656 578.08204529 -55.17136383 578.12840271 C-52.83132647 578.28547122 -50.5451078 578.534118 -48.21936798 578.8216095 C-43.66263732 579.33185366 -39.17971277 579.45951873 -34.59812164 579.44725037 C-33.77383163 579.44900269 -32.94954163 579.450755 -32.10027313 579.45256042 C-29.39795519 579.45692934 -26.69570384 579.45405494 -23.99338531 579.45066833 C-22.08597044 579.45134363 -20.17855564 579.45231553 -18.27114105 579.4535675 C-14.27433197 579.4550385 -10.27754529 579.45291227 -6.28073883 579.44822693 C-1.22406087 579.4425805 3.8325634 579.44577987 8.88923931 579.45179939 C12.83358899 579.45546464 16.77792658 579.45423867 20.72227669 579.4516716 C22.5824948 579.45101603 24.44271411 579.45178128 26.30293083 579.45415115 C45.71077053 579.47342569 65.05579096 578.60902977 84.40114594 577.06785583 C85.59119736 576.97315506 85.59119736 576.97315506 86.80529022 576.87654114 C135.88670735 572.91313814 184.71501672 565.61742805 232.65114594 554.31785583 C233.38921478 554.14532288 234.12728363 553.97278992 234.8877182 553.79502869 C289.95174107 540.91931713 343.04688057 522.67854133 393.65114594 497.31785583 C395.21784027 496.53644226 395.21784027 496.53644226 396.816185 495.73924255 C421.6007965 483.31498758 444.93571072 468.55501064 466.65114594 451.31785583 C467.57282562 450.59082458 468.49450531 449.86379333 469.44411469 449.11473083 C485.50786156 436.22664532 501.12718713 421.69705463 513.65114594 405.31785583 C514.0639682 404.79207947 514.47679047 404.2663031 514.9021225 403.72459412 C541.35384975 369.95997261 556.77123357 328.25135553 552.15114594 285.06004333 C550.76819504 274.14602923 548.18116885 263.72344597 544.65114594 253.31785583 C544.31276703 252.30513611 544.31276703 252.30513611 543.96755219 251.2719574 C535.59874497 226.57924797 520.63039107 204.80606322 502.95583344 185.81004333 C500.93763463 183.62765208 499.00582573 181.40093282 497.08864594 179.13035583 C493.91112847 175.46456736 490.39214678 172.31082176 486.72536469 169.14207458 C485.00926148 167.63280868 483.41345306 166.09519193 481.83864594 164.44285583 C479.82630804 162.48801331 478.22854927 161.36790905 475.65114594 160.31785583 C475.65114594 159.65785583 475.65114594 158.99785583 475.65114594 158.31785583 C474.18089537 156.90832 474.18089537 156.90832 472.15114594 155.44285583 C470.90204437 154.50312927 470.90204437 154.50312927 469.62770844 153.54441833 C468.64544281 152.80965271 467.66317719 152.07488708 466.65114594 151.31785583 C465.53284913 150.45209933 464.41572601 149.58482533 463.29958344 148.71629333 C420.56927376 115.72430769 371.88658443 92.78999252 321.56252289 74.0309906 C319.40615155 73.22644843 317.25347153 72.41234178 315.10036469 71.59910583 C303.78990942 67.32972053 303.78990942 67.32972053 292.17067719 64.02098083 C289.36655513 63.23843515 286.69575085 62.19381571 283.97805023 61.15623474 C279.43515327 59.51943816 274.78823716 58.2209508 270.15114594 56.88035583 C269.17661469 56.59353943 268.20208344 56.30672302 267.19802094 56.01121521 C219.83119931 42.23679623 170.8178589 34.09367243 121.87068939 28.56852722 C119.77100817 28.33139287 117.67175086 28.0907869 115.57253265 27.84959412 C94.97587639 25.51616383 74.35530409 24.17370937 53.65114594 23.31785583 C52.86646942 23.2852063 52.08179291 23.25255676 51.27333832 23.21891785 C-35.71381318 19.68301781 -124.28935314 24.75594583 -448.34885406 142.31785583 Z " fill="#4F5564" transform="translate(636.3488540649414,338.68214416503906)"/>
<path d="M0 0 C17.89102387 -0.07046132 35.78201113 -0.12316826 53.67314434 -0.15543652 C61.98258321 -0.17082557 70.29193526 -0.19176026 78.60131836 -0.22631836 C85.85405554 -0.25646725 93.10672977 -0.27563263 100.35952789 -0.28226548 C104.19051122 -0.28613519 108.02131466 -0.2950573 111.85223961 -0.31719017 C145.18166179 -0.50203304 179.24935945 1.23017796 205 25 C205.71542969 25.62390625 206.43085937 26.2478125 207.16796875 26.890625 C219.25780618 38.02169389 227.31394691 55.99481527 228.12084961 72.46704102 C228.89743606 99.36181996 225.75634339 125.98224867 213 150 C212.68659668 150.60183105 212.37319336 151.20366211 212.05029297 151.82373047 C207.58539931 160.32450665 202.36641775 167.78327303 196 175 C195.2678125 175.85335937 194.535625 176.70671875 193.78125 177.5859375 C185.83518403 186.6791468 177.14399805 194.44072306 167 201 C166.13246094 201.57492187 165.26492188 202.14984375 164.37109375 202.7421875 C145.45419407 214.58169356 120.72337189 221.03704799 98.49438477 221.20532227 C97.67406265 221.21522186 96.85374054 221.22512146 96.00856018 221.23532104 C93.31953739 221.26669885 90.63049699 221.29159882 87.94140625 221.31640625 C86.0681057 221.33699631 84.19480958 221.3579933 82.32151794 221.37937927 C77.40776169 221.43438814 72.49396498 221.48389025 67.58013916 221.53222656 C62.55924917 221.58259693 57.5384174 221.63820165 52.51757812 221.69335938 C42.67843524 221.80068157 32.83924165 221.9021834 23 222 C21.18983018 231.26633672 19.38156178 240.53304189 17.57569218 249.80021763 C16.73701721 254.10372844 15.89769798 258.40711148 15.05688477 262.71020508 C14.24486079 266.86608961 13.43455743 271.0223063 12.62542534 275.17875481 C12.31705903 276.76121811 12.00808217 278.34356256 11.69847298 279.92578316 C11.26357206 282.14885571 10.8308814 284.37234821 10.39868164 286.59594727 C10.15219376 287.85947525 9.90570587 289.12300323 9.65174866 290.42481995 C9.01189073 293.93477315 8.50456297 297.46805919 8 301 C-13.78 301 -35.56 301 -58 301 C-56.87505353 289.75053534 -56.87505353 289.75053534 -55.92431641 284.97802734 C-55.71384674 283.90926361 -55.50337708 282.84049988 -55.28652954 281.73934937 C-54.94747086 280.05466049 -54.94747086 280.05466049 -54.6015625 278.3359375 C-54.36593597 277.14505524 -54.13030945 275.95417297 -53.88754272 274.72720337 C-53.13777036 270.94224447 -52.38162235 267.15859491 -51.625 263.375 C-50.87867983 259.62164761 -50.13369271 255.86803264 -49.38896179 252.11436462 C-48.90839501 249.69235134 -48.4272915 247.27044448 -47.94563293 244.84864807 C-46.45633819 237.34887859 -45.01470639 229.84244978 -43.62207031 222.32421875 C-42.65257506 217.14343095 -41.60852847 211.97827791 -40.5625 206.8125 C-38.96266203 198.86107555 -37.38896622 190.90574326 -35.875 182.9375 C-35.71354492 182.08800781 -35.55208984 181.23851562 -35.38574219 180.36328125 C-34.61913699 176.31459838 -33.86299682 172.26422078 -33.12109375 168.2109375 C-32.91540771 167.09344116 -32.91540771 167.09344116 -32.70556641 165.95336914 C-32.33868156 163.95510004 -31.97582626 161.95609228 -31.61328125 159.95703125 C-31 157 -31 157 -30 155 C-29.6972309 153.23434651 -29.43375518 151.46191815 -29.1875 149.6875 C-28.24997063 143.36627923 -27.12603139 137.09122075 -25.9375 130.8125 C-25.76307373 129.87946045 -25.58864746 128.9464209 -25.40893555 127.98510742 C-25.24176025 127.10959229 -25.07458496 126.23407715 -24.90234375 125.33203125 C-24.67792603 124.15217651 -24.67792603 124.15217651 -24.44897461 122.94848633 C-24 121 -24 121 -23 119 C-22.68240101 117.15523864 -22.40385761 115.30369955 -22.14379883 113.44995117 C-20.9137358 105.18110365 -19.31269716 97.0012802 -17.69921875 88.80078125 C-17.37751371 87.1553352 -17.05605203 85.50984156 -16.7348175 83.86430359 C-15.89236713 79.55195371 -15.04690096 75.24020091 -14.20068359 70.92858887 C-13.19027974 65.77778844 -12.18322959 60.62633163 -11.17582893 55.47494316 C-10.36094772 51.30811187 -9.54561522 47.14137066 -8.72897339 42.97488403 C-7.28495266 35.60363582 -5.84724227 28.23138412 -4.43994141 20.85302734 C-4.20765335 19.63624802 -3.9753653 18.41946869 -3.73603821 17.16581726 C-3.31352778 14.94646692 -2.89281717 12.72677284 -2.47428894 10.50666809 C-2.20048149 9.06706978 -2.20048149 9.06706978 -1.92114258 7.59838867 C-1.76583572 6.77505539 -1.61052887 5.95172211 -1.45051575 5.10343933 C-1 3 -1 3 0 0 Z " fill="#010101" transform="translate(813,507)"/>
<path d="M0 0 C17.89102387 -0.07046132 35.78201113 -0.12316826 53.67314434 -0.15543652 C61.98258321 -0.17082557 70.29193526 -0.19176026 78.60131836 -0.22631836 C85.85405554 -0.25646725 93.10672977 -0.27563263 100.35952789 -0.28226548 C104.19051122 -0.28613519 108.02131466 -0.2950573 111.85223961 -0.31719017 C146.15887435 -0.50757152 177.94586473 1.9199185 205 25 C205.68578125 25.57234375 206.3715625 26.1446875 207.078125 26.734375 C220.46665615 38.91673218 227.45745722 58.64670789 228.3203125 76.34765625 C229.39698759 113.86853122 218.55783326 148.56229362 194 177 C193.03126953 178.16982422 193.03126953 178.16982422 192.04296875 179.36328125 C186.95245347 185.36614958 181.21494388 190.19480826 175 195 C174.18144531 195.66902344 173.36289062 196.33804688 172.51953125 197.02734375 C146.3072664 217.55012475 112.35673736 221.20347701 80.203125 221.09765625 C78.51633751 221.09578681 76.82954946 221.0943654 75.14276123 221.09336853 C70.7435959 221.08958474 66.34446457 221.07979073 61.9453125 221.06866455 C57.44010884 221.05836053 52.93489959 221.05385181 48.4296875 221.04882812 C39.61977621 221.03816396 30.80989236 221.02113845 22 221 C21.9075576 222.32309174 21.9075576 222.32309174 21.81324768 223.6729126 C21.68634804 225.41698395 21.68634804 225.41698395 21.55688477 227.19628906 C21.4746315 228.34647522 21.39237823 229.49666138 21.30763245 230.68170166 C20.89330003 235.15092646 19.98380415 239.39350834 18.9375 243.75 C16.06180819 256.29647163 13.63752929 268.92354704 11.20968628 281.56286621 C10.86223791 283.37163745 10.51410326 285.18027703 10.16520691 286.98876953 C9.84335667 288.65768016 9.52329567 290.32693714 9.20527649 291.99658203 C8.61183354 295.07325434 7.99214194 298.02357418 7 301 C-14.45 301 -35.9 301 -58 301 C-57.31221084 293.4343192 -56.40601403 286.61327957 -54.6875 279.3125 C-52.80115204 271.01407368 -51.21458516 262.71630894 -49.875 254.3125 C-48.79496191 247.54855519 -47.58414663 240.96739063 -45.77734375 234.35546875 C-44.62516137 229.38197796 -43.86834111 224.35210632 -43.0625 219.3125 C-41.83122827 211.62410093 -40.40738276 204.08305759 -38.50463867 196.53491211 C-36.70547075 189.19413015 -35.55452117 181.74769108 -34.39453125 174.28320312 C-33.7669892 170.30437562 -33.13792257 166.47241194 -32.0078125 162.6015625 C-31.12705085 159.45403442 -30.59632434 156.5321958 -30.13452148 153.3059082 C-28.93291897 145.324882 -27.39652784 137.42093206 -25.83984375 129.50390625 C-25.53052729 127.92065232 -25.22144074 126.33735345 -24.91256714 124.75401306 C-24.09273135 120.55470372 -23.26976629 116.35601353 -22.44617081 112.15744019 C-21.59264506 107.80325232 -20.7421547 103.44847166 -19.89135742 99.09375 C-18.07611526 89.8053341 -16.25696702 80.51768612 -14.43696594 71.23020172 C-13.13149398 64.56728927 -11.82759177 57.90406927 -10.52363586 51.24085999 C-9.61383653 46.59206761 -8.70345582 41.94339292 -7.79077148 37.29516602 C-7.47114605 35.66553624 -7.15156457 34.03589784 -6.83203125 32.40625 C-6.68227341 31.64380478 -6.53251556 30.88135956 -6.3782196 30.09580994 C-5.53765983 25.80157584 -4.71656291 21.50418653 -3.91162109 17.203125 C-3.7300798 16.23644897 -3.54853851 15.26977295 -3.36149597 14.27380371 C-3.0102961 12.39938127 -2.66164621 10.52447878 -2.31587219 8.64904785 C-2.15837997 7.80902222 -2.00088776 6.96899658 -1.83862305 6.10351562 C-1.70054733 5.35831665 -1.56247162 4.61311768 -1.42021179 3.84533691 C-1 2 -1 2 0 0 Z " fill="#010101" transform="translate(301,507)"/>
<path d="M0 0 C21.45 0 42.9 0 65 0 C63.66664523 8.666806 62.22190711 17.17652103 60.41210938 25.734375 C59.6114465 29.61191477 58.92237522 33.41442216 58.56640625 37.359375 C58.22214344 40.82947207 57.52421115 44.06078919 56.63256836 47.43066406 C54.9169581 54.15641382 53.5894467 60.92933 52.3125 67.75 C51.97508789 69.52890625 51.97508789 69.52890625 51.63085938 71.34375 C51.08413466 74.22859532 50.54056448 77.11399521 50 80 C50.95640884 79.99555878 51.91281769 79.99111755 52.89820862 79.98654175 C61.97338169 79.94575094 71.04853583 79.9158993 80.12378025 79.89637566 C84.78788173 79.88600051 89.45190837 79.8719579 94.1159668 79.84912109 C98.62880614 79.82716651 103.14157413 79.81538443 107.65446281 79.81024551 C109.36417702 79.80658988 111.07388796 79.79945331 112.78357124 79.78853989 C127.13417826 79.70069586 140.83756911 80.63205263 154.6875 84.75 C155.58251221 85.01312988 156.47752441 85.27625977 157.3996582 85.54736328 C172.00209362 89.99094988 184.63651416 96.71521455 192.59765625 110.18359375 C194.66158749 114.32870357 195.95753843 118.50137739 197 123 C197.25583862 123.92184082 197.25583862 123.92184082 197.5168457 124.86230469 C198.40664607 128.79918798 198.26987716 132.79174552 198.3125 136.8125 C198.34150391 137.65103516 198.37050781 138.48957031 198.40039062 139.35351562 C198.5769173 158.32334351 192.92717964 177.82022777 189.2538147 196.3270874 C188.47952474 200.22815966 187.70842632 204.12985593 186.93823242 208.03173828 C185.85260931 213.52989446 184.76555034 219.02776454 183.67724609 224.52539062 C181.28534108 236.60882999 178.89724165 248.69301866 176.51502419 260.77837181 C175.85087348 264.14726107 175.18591677 267.51598701 174.51904297 270.88433838 C173.77800877 274.62830484 173.03917188 278.37269892 172.30078125 282.1171875 C172.08154495 283.22173279 171.86230865 284.32627808 171.63642883 285.46429443 C171.43454453 286.49040833 171.23266022 287.51652222 171.0246582 288.57373047 C170.84989456 289.45785614 170.67513092 290.34198181 170.49507141 291.25289917 C169.91208717 294.48781936 169.46485652 297.74600436 169 301 C147.22 301 125.44 301 103 301 C103 295.16191341 103.40659982 292.31027025 105 287 C105.60638363 283.84626834 106.06738827 280.67013481 106.5546875 277.49609375 C109.68830412 257.98224393 113.68468679 238.61758088 117.50219727 219.22894287 C118.33785878 214.9802871 119.17010672 210.73096578 120.00226021 206.48162174 C120.80939581 202.36091944 121.61782485 198.24047183 122.42672348 194.12011528 C122.81045434 192.16546188 123.19397542 190.21076728 123.57727432 188.25602913 C124.11168854 185.53251133 124.64764912 182.80930246 125.18408203 180.08618164 C125.33892059 179.29597626 125.49375916 178.50577087 125.65328979 177.69161987 C126.5533646 173.13258645 127.52968533 168.60074484 128.5969677 164.07770443 C129.29159752 160.49676205 129.32904648 156.94941683 129.3125 153.3125 C129.32861328 152.59255859 129.34472656 151.87261719 129.36132812 151.13085938 C129.36571612 146.31722971 128.42310232 143.26440434 126 139 C126 138.34 126 137.68 126 137 C122.92954674 135.38891511 119.81907822 134.12540579 116.5625 132.9375 C115.63566406 132.59589844 114.70882812 132.25429688 113.75390625 131.90234375 C108.90741879 130.31434573 104.46966919 129.86288276 99.3737793 129.79467773 C98.72931351 129.78477814 98.08484772 129.77487854 97.42085266 129.76467896 C95.30534451 129.73326613 93.18981395 129.70838721 91.07421875 129.68359375 C89.60162292 129.66300672 88.12903276 129.6420098 86.65644836 129.62062073 C82.79154067 129.56558057 78.92658126 129.51609214 75.06158447 129.46777344 C71.11327543 129.41742608 67.16504097 129.36180928 63.21679688 129.30664062 C55.47792785 129.19928011 47.73899655 129.09778662 40 129 C39.85751831 130.00075562 39.85751831 130.00075562 39.7121582 131.02172852 C38.0499124 142.5666915 36.35035075 154.07614763 33.7734375 165.45703125 C31.32655853 176.27098752 29.16142882 187.13040897 27.0390625 198.01171875 C26.8616024 198.92069035 26.6841423 199.82966194 26.50130463 200.76617813 C25.39272912 206.44716196 24.28787928 212.12886527 23.18414307 217.81079102 C22.26260854 222.55195085 21.33820354 227.2925508 20.4140625 232.03320312 C18.4471204 242.12604263 16.48415768 252.21965326 14.52223206 262.31346893 C13.49591822 267.59316016 12.46902607 272.87273893 11.44221878 278.15233421 C9.96109867 285.76814889 8.4806012 293.38408434 7 301 C-14.45 301 -35.9 301 -58 301 C-57.3490823 293.83990526 -56.67582775 288.49713939 -54.8828125 281.8125 C-53.69488316 276.68232729 -52.890435 271.51118977 -52.0625 266.3125 C-50.83114114 258.62018414 -49.40404413 251.07621844 -47.50244141 243.52392578 C-45.7232187 236.25891162 -44.60999611 228.89318724 -43.4296875 221.51171875 C-42.6356905 216.61019394 -41.81041757 211.79541997 -40.5 207 C-39.3556485 202.79046407 -38.57831893 198.60405852 -37.90454102 194.30166626 C-34.72264539 174.01663601 -30.57554766 153.89690227 -26.61437988 133.75354004 C-25.79409882 129.57651176 -24.97803263 125.3986647 -24.16200256 121.22080421 C-23.36412184 117.13819072 -22.56392604 113.0560336 -21.76303101 108.97401047 C-21.38613173 107.05199452 -21.0098273 105.12986181 -20.63418579 103.20759964 C-18.65193544 93.07235043 -16.60587645 82.96085534 -14.3079071 72.89183235 C-12.95433331 66.93942255 -11.921517 60.96924764 -11 54.9375 C-9.79566453 47.37694953 -8.37903493 39.96564561 -6.5065918 32.54443359 C-4.66955938 25.05673658 -3.50294777 17.45577383 -2.30664062 9.84375 C-2.15001953 8.85503906 -1.99339844 7.86632812 -1.83203125 6.84765625 C-1.69514893 5.96086182 -1.5582666 5.07406738 -1.41723633 4.16040039 C-1 2 -1 2 0 0 Z " fill="#010101" transform="translate(574,427)"/>
<path d="M0 0 C0.68315781 -0.00817749 1.36631561 -0.01635498 2.07017517 -0.02478027 C4.33551152 -0.0496317 6.60078512 -0.06615118 8.86621094 -0.08056641 C9.64019981 -0.08589008 10.41418869 -0.09121376 11.21163177 -0.09669876 C15.30986033 -0.12343168 19.40805843 -0.14280443 23.50634766 -0.15722656 C27.73448103 -0.17385798 31.96183244 -0.21862163 36.18967056 -0.26959801 C39.44454821 -0.30329924 42.69924109 -0.31480715 45.95427704 -0.32045364 C47.51238722 -0.32716028 49.07048548 -0.34236729 50.6284256 -0.36634445 C52.81412375 -0.39805847 54.99772479 -0.39802483 57.18359375 -0.390625 C58.42554504 -0.39871185 59.66749634 -0.40679871 60.94708252 -0.41513062 C65.47925803 0.39449703 67.12012358 1.96123015 70.35058594 5.19287109 C71.00683594 7.28076172 71.00683594 7.28076172 70.85058594 9.34912109 C70.76744141 10.52474609 70.76744141 10.52474609 70.68261719 11.72412109 C70.09462776 16.09599541 69.28422467 20.38200939 68.35058594 24.69287109 C67.89721603 26.86833052 67.44552733 29.04414069 66.99511719 31.22021484 C66.73939941 32.44853027 66.48368164 33.6768457 66.22021484 34.94238281 C64.60963516 42.75712828 63.10916115 50.59430015 61.58764648 58.42675781 C61.04013831 61.24480746 60.49145773 64.06262633 59.94238281 66.88037109 C59.07773315 71.31773173 58.21391202 75.75525276 57.35058594 80.19287109 C58.52638466 80.17954742 58.52638466 80.17954742 59.72593689 80.16595459 C67.23806467 80.0846584 74.74996918 80.02433776 82.26242733 79.98562241 C86.12151809 79.96504722 89.98023546 79.93730743 93.83911133 79.89111328 C147.3143709 79.26856858 147.3143709 79.26856858 169.53808594 90.94287109 C170.21806641 91.29357666 170.89804687 91.64428223 171.59863281 92.00561523 C186.03258803 99.64134298 196.43293961 110.73032072 201.38574219 126.48583984 C206.81729657 149.24784216 202.54659273 173.0264165 196.80371094 195.29833984 C195.08272459 202.02563065 194.02649158 208.80735347 192.97753906 215.66552734 C192.06121754 221.43950311 190.94094407 227.13288959 189.63183594 232.82958984 C187.61948985 241.63346785 185.91112878 250.49080601 184.22167969 259.36083984 C183.94093117 260.83045366 183.66013352 262.30005809 183.37928772 263.76965332 C182.21761101 269.85471846 181.05899883 275.9403432 179.91137695 282.02807617 C179.20039239 285.79785845 178.48159016 289.56608005 177.75782967 293.33342934 C177.4866035 294.75332492 177.21828282 296.173779 176.95306206 297.59480858 C173.58271258 315.64136552 173.58271258 315.64136552 169.69615173 318.34283447 C166.48720252 319.50576256 163.67146166 319.47080889 160.25878906 319.49926758 C159.55261948 319.50759109 158.84644989 319.51591461 158.11888123 319.52449036 C155.78980974 319.54854229 153.46101834 319.55735505 151.13183594 319.56396484 C149.51045651 319.57293263 147.88907793 319.5820545 146.2677002 319.59132385 C142.87164296 319.60780173 139.4756842 319.61551215 136.07958984 319.6184082 C131.72797024 319.62380054 127.37727516 319.6615197 123.02591705 319.70715237 C119.67845268 319.73688791 116.3312123 319.74413093 112.98362732 319.74513435 C111.37922415 319.74934124 109.77482059 319.76179447 108.17054749 319.7826519 C105.9271316 319.80950513 103.68587723 319.80476231 101.44238281 319.79223633 C99.52854797 319.7998423 99.52854797 319.7998423 97.5760498 319.80760193 C94.35058594 319.19287109 94.35058594 319.19287109 91.94055176 316.79676819 C87.5530605 309.61134597 90.80735503 300.41157657 92.64331055 292.73657227 C94.20608896 286.1390032 95.34741834 279.51221062 96.41308594 272.81787109 C97.53889974 265.78946693 98.76640869 258.90535804 100.65467834 252.03427124 C101.36826153 249.12070139 101.83841144 246.25028154 102.26245117 243.28125 C103.35661152 235.96870494 104.72352556 228.72325452 106.13574219 221.46630859 C106.39968981 220.10205097 106.66347543 218.737762 106.92710876 217.3734436 C107.47431555 214.5445507 108.02323897 211.71599832 108.57348633 208.88769531 C109.27821328 205.26476419 109.97884148 201.64105445 110.67826176 198.01709557 C111.21979442 195.21329826 111.7632891 192.40988414 112.30740166 189.60658646 C112.56672309 188.26945608 112.82547324 186.93221477 113.08363533 185.59486008 C113.4428622 183.73570921 113.80498141 181.87711791 114.16723633 180.01855469 C114.37216202 178.96300385 114.57708771 177.907453 114.78822327 176.81991577 C115.35058594 174.19287109 115.35058594 174.19287109 116.35058594 171.19287109 C116.52424439 168.53105709 116.62732253 165.9185531 116.66308594 163.25537109 C116.7065918 162.18125977 116.7065918 162.18125977 116.75097656 161.08544922 C116.7894289 157.89390546 116.61675943 155.63500241 114.95605469 152.87646484 C106.92925052 147.68972932 97.72767552 147.72891096 88.46777344 147.68115234 C87.17235626 147.66320114 85.87693909 147.64524994 84.54226685 147.62675476 C81.1328222 147.57966786 77.72344176 147.54959373 74.31378174 147.52331543 C70.8207125 147.4932987 67.32786377 147.44684221 63.83496094 147.40185547 C57.0069625 147.31629411 50.17889024 147.24874174 43.35058594 147.19287109 C43.2880513 147.8523877 43.22551666 148.5119043 43.16108704 149.19140625 C42.72642751 153.67342048 42.2815086 158.12756013 41.51855469 162.56787109 C41.36185303 163.48093018 41.20515137 164.39398926 41.04370117 165.3347168 C40.87684814 166.27790771 40.70999512 167.22109863 40.53808594 168.19287109 C40.362854 169.19471436 40.18762207 170.19655762 40.00708008 171.22875977 C38.78265938 178.09830077 37.35513514 184.89810233 35.78100586 191.69482422 C34.79790725 195.99630336 33.95379885 200.29331792 33.25708008 204.65063477 C33.12293701 205.48957275 32.98879395 206.32851074 32.85058594 207.19287109 C32.74506912 207.86100327 32.63955231 208.52913544 32.53083801 209.21751404 C31.74635607 214.07505493 30.78697822 218.84823111 29.66699219 223.64208984 C27.66381081 232.44133359 25.93072308 241.29001001 24.22167969 250.14990234 C24.01400152 251.22577921 24.01400152 251.22577921 23.80212784 252.32339096 C22.79398098 257.5500532 21.79061664 262.77762919 20.78808594 268.00537109 C19.78044895 273.25877676 18.7710551 278.51183498 17.75782967 283.76416588 C17.35989755 285.83124159 16.96482284 287.89884866 16.56993103 289.96650696 C15.84800537 293.71240372 15.1005755 297.45250984 14.35058594 301.19287109 C14.12694366 302.4021225 13.90330139 303.6113739 13.67288208 304.85726929 C13.44285492 306.00531036 13.21282776 307.15335144 12.97583008 308.33618164 C12.78243546 309.34674118 12.58904083 310.35730072 12.38978577 311.39848328 C11.02252066 315.07503215 9.46342539 316.81128276 6.35058594 319.19287109 C3.04956055 319.82778931 3.04956055 319.82778931 -0.74707031 319.83984375 C-1.44202606 319.84860535 -2.13698181 319.85736694 -2.85299683 319.86639404 C-5.13994618 319.88832054 -7.42494663 319.87386209 -9.71191406 319.85693359 C-11.30705128 319.86030374 -12.902186 319.86515801 -14.49731445 319.87142944 C-17.83634958 319.87879153 -21.17471478 319.86811761 -24.51367188 319.84472656 C-28.78796206 319.81623808 -33.06068253 319.83264577 -37.33491516 319.86258888 C-40.62760183 319.88068049 -43.91991798 319.87489554 -47.21261597 319.86194992 C-48.78824043 319.858621 -50.36389883 319.86268496 -51.93948364 319.87434769 C-54.14447761 319.88708855 -56.34695106 319.86764067 -58.55175781 319.83984375 C-60.43109009 319.8338768 -60.43109009 319.8338768 -62.34838867 319.82778931 C-66.57937033 319.01400359 -68.07197254 317.59538157 -70.64941406 314.19287109 C-72.2255535 307.66098264 -70.09213354 300.10183588 -68.71582031 293.65380859 C-68.51842758 292.68810944 -68.32103485 291.72241028 -68.11766052 290.72744751 C-67.4916009 287.67227406 -66.85245359 284.62003831 -66.21191406 281.56787109 C-65.57732388 278.5081278 -64.94556557 275.44783312 -64.31687927 272.38687134 C-63.92684106 270.49166448 -63.53306944 268.59722069 -63.13490295 266.70370483 C-62.0639865 261.54238395 -61.22812805 256.43291865 -60.64941406 251.19287109 C-61.21595703 252.15773438 -61.21595703 252.15773438 -61.79394531 253.14208984 C-79.93784632 282.92868143 -108.98047262 305.57437074 -142.87988281 314.30615234 C-144.38496822 314.67016849 -145.89148527 315.02831909 -147.39941406 315.38037109 C-148.05304932 315.53554199 -148.70668457 315.69071289 -149.38012695 315.85058594 C-163.43375315 318.89611949 -177.83043258 319.49710242 -192.15722656 319.60693359 C-193.74576743 319.6257191 -195.33429909 319.64529745 -196.92282104 319.6656189 C-201.03577149 319.71616887 -205.14875403 319.75619839 -209.26184082 319.79376221 C-213.48615949 319.8342958 -217.71035374 319.88515844 -221.93457031 319.93505859 C-230.17276542 320.03089984 -238.41102402 320.11558716 -246.64941406 320.19287109 C-246.85111206 321.34387802 -247.05281006 322.49488495 -247.26062012 323.68077087 C-247.53015988 325.21467647 -247.79973362 326.7485761 -248.06933594 328.2824707 C-248.2016864 329.03827171 -248.33403687 329.79407272 -248.47039795 330.57277679 C-249.5990068 336.98746298 -250.84644466 343.3738415 -252.14941406 349.75537109 C-253.56732782 356.76869656 -254.97084963 363.78234005 -256.27441406 370.81787109 C-256.50515625 372.04376953 -256.73589844 373.26966797 -256.97363281 374.53271484 C-257.45267824 377.12731351 -257.9122024 379.72134584 -258.35644531 382.32177734 C-258.59960635 383.67470102 -258.84308521 385.02756762 -259.08691406 386.38037109 C-259.291875 387.57017578 -259.49683594 388.75998047 -259.70800781 389.98583984 C-260.7527095 393.54476138 -262.1113216 395.51784879 -264.64941406 398.19287109 C-267.59096939 399.66364876 -270.23014778 399.3527556 -273.51416016 399.38574219 C-274.22003769 399.39391968 -274.92591522 399.40209717 -275.65318298 399.41052246 C-277.99306385 399.43536974 -280.33288415 399.45188943 -282.67285156 399.46630859 C-283.47140186 399.47163227 -284.26995216 399.47695595 -285.09270096 399.48244095 C-289.31830129 399.50916791 -293.54387211 399.5285454 -297.76953125 399.54296875 C-302.13685301 399.55962822 -306.50342182 399.6044172 -310.8704586 399.65534019 C-314.22647992 399.68897056 -317.58232143 399.70054138 -320.93849564 399.70619583 C-322.54849639 399.71291859 -324.15848489 399.7281674 -325.76832199 399.75208664 C-328.02146854 399.78365774 -330.27256987 399.7837887 -332.52587891 399.77636719 C-334.44876236 399.78849747 -334.44876236 399.78849747 -336.41049194 399.8008728 C-339.64941406 399.19287109 -339.64941406 399.19287109 -342.06999207 396.93696594 C-346.40638796 389.40289231 -342.92935737 379.05496834 -341.34082031 371.01708984 C-341.09866791 369.75379852 -340.8565155 368.4905072 -340.60702515 367.18893433 C-339.95452344 363.78696354 -339.2905116 360.38733743 -338.62400436 356.9880867 C-338.07137968 354.16158077 -337.52576416 351.33374169 -336.98029804 348.50584698 C-333.24131757 329.12202113 -329.42163041 309.75328408 -325.50512695 290.40454102 C-323.46961528 280.34816984 -321.51150348 270.2829258 -319.64941406 260.19287109 C-318.96534731 256.50472012 -318.27767525 252.81727341 -317.58691406 249.13037109 C-317.42642578 248.25960937 -317.2659375 247.38884766 -317.10058594 246.49169922 C-316.41761531 242.86290348 -315.69495623 239.3472875 -314.64941406 235.80224609 C-313.25379388 230.76492949 -312.51791294 225.66512461 -311.71191406 220.50537109 C-310.54603718 213.24830456 -309.29397262 206.12581304 -307.34465027 199.03143311 C-306.63816986 196.14696243 -306.1734299 193.30929655 -305.75610352 190.36962891 C-304.58607956 182.55224443 -303.08803428 174.8069375 -301.56738281 167.05224609 C-301.26813028 165.51649922 -300.96908824 163.98071131 -300.67024231 162.44488525 C-300.04561966 159.23753047 -299.41936918 156.03049983 -298.79174805 152.82373047 C-297.69261941 147.20783284 -296.59901506 141.59086249 -295.50526619 135.9739151 C-294.74680597 132.08173088 -293.98554853 128.19013113 -293.2182312 124.29968262 C-292.92099755 122.7920821 -292.62380661 121.28447317 -292.32666016 119.77685547 C-292.18278807 119.04701195 -292.03891598 118.31716843 -291.89068413 117.56520844 C-290.97107447 112.88205291 -290.08902136 108.19344091 -289.22607422 103.49951172 C-289.00824783 102.34098694 -288.79042145 101.18246216 -288.56599426 99.98883057 C-288.16977491 97.87818712 -287.78450468 95.76544336 -287.41288757 93.65032959 C-286.4365003 88.52328081 -285.54968611 84.94366876 -281.64941406 81.19287109 C-278.9882634 79.86229576 -276.96856458 80.06086364 -273.98730469 80.0524292 C-272.78210175 80.04671906 -271.5768988 80.04100891 -270.33517456 80.03512573 C-268.9920045 80.03388022 -267.64883432 80.03275515 -266.30566406 80.03173828 C-264.8961677 80.02711038 -263.4866726 80.02208576 -262.07717896 80.01669312 C-258.23736876 80.00354821 -254.39757608 79.99711793 -250.55774689 79.99268246 C-248.15248887 79.98974984 -245.7472356 79.98564426 -243.34197998 79.98117828 C-235.79957031 79.96748633 -228.25717153 79.95783289 -220.71475029 79.95397639 C-212.04284356 79.94951733 -203.37109616 79.93207764 -194.69923782 79.9029758 C-187.97964796 79.88121994 -181.2601024 79.87126446 -174.54047775 79.86993527 C-170.53693264 79.8688954 -166.53353692 79.86316687 -162.5300293 79.84511566 C-130.74075831 79.70985487 -130.74075831 79.70985487 -115.64941406 83.19287109 C-114.71219009 83.39078751 -113.77496613 83.58870392 -112.80934143 83.7926178 C-96.71550977 87.25501742 -80.8479391 94.02964523 -68.64941406 105.19287109 C-67.53953125 106.05912109 -67.53953125 106.05912109 -66.40722656 106.94287109 C-53.25731364 117.49920257 -44.47834828 134.78505265 -41.64941406 151.19287109 C-40.27727379 147.28056938 -39.2166549 143.46941062 -38.45117188 139.39624023 C-38.12799736 137.69473816 -38.12799736 137.69473816 -37.79829407 135.9588623 C-37.56869492 134.72768677 -37.33909576 133.49651123 -37.10253906 132.22802734 C-36.85260505 130.90515391 -36.60224249 129.58236137 -36.35148621 128.25964355 C-35.81286958 125.41558719 -35.27648152 122.57112293 -34.7416687 119.72634888 C-33.8932622 115.21712375 -33.03624589 110.70956371 -32.17700195 106.20239258 C-32.03137975 105.43845971 -31.88575754 104.67452684 -31.73572254 103.8874445 C-31.43750666 102.32328548 -31.13925073 100.75913409 -30.84095573 99.19499016 C-30.22867636 95.98389805 -29.61698822 92.77269346 -29.00535297 89.56147861 C-28.69345665 87.92398932 -28.38151019 86.28650958 -28.06951427 84.64903927 C-27.27637097 80.48608773 -26.48393213 76.32300412 -25.69281006 72.15966797 C-23.96329932 63.06094697 -22.22439119 53.96416644 -20.46196938 44.87175655 C-19.69794207 40.92848369 -18.93919025 36.98436374 -18.1932373 33.03762817 C-17.49060119 29.32063826 -16.77429818 25.60654538 -16.04747963 21.89421082 C-15.7829779 20.53052755 -15.52344741 19.16586906 -15.26930809 17.80021667 C-14.92056088 15.93055482 -14.55192098 14.06463652 -14.18237305 12.19897461 C-13.98175766 11.15387222 -13.78114227 10.10876984 -13.57444763 9.03199768 C-12.49679788 5.72445926 -11.00426359 3.73099462 -8.64941406 1.19287109 C-5.75936444 -0.25215372 -3.22919446 0.03352423 0 0 Z M-3.64941406 9.19287109 C-6.15602914 20.00912917 -6.15602914 20.00912917 -8.08691406 30.88037109 C-9.16878791 37.69494114 -10.52710023 44.40004592 -12.07421875 51.12290955 C-13.30322867 56.51073117 -14.38753919 61.91288389 -15.39941406 67.34521484 C-17.05541916 76.13124052 -18.76374743 84.90615725 -20.49707031 93.67724609 C-20.75263702 94.97082031 -21.00820374 96.26439453 -21.27151489 97.59716797 C-21.80747922 100.30933302 -22.34369118 103.02144901 -22.87997437 105.73355103 C-27.33199604 128.25337676 -31.75942436 150.77802575 -36.12228394 173.31530762 C-36.5938508 175.75028986 -37.06626532 178.18510812 -37.5395813 180.61975098 C-40.68326131 196.59034927 -40.68326131 196.59034927 -43.24682617 212.66088867 C-43.69905517 215.50507723 -44.34016892 218.2710525 -45.02441406 221.06787109 C-46.5163658 227.25419623 -47.59327795 233.48112173 -48.64941406 239.75537109 C-50.65850329 251.66910011 -50.65850329 251.66910011 -52.14941406 257.13037109 C-53.99791615 263.97482477 -54.97187471 270.97118806 -56.08984375 277.96337891 C-57.27150917 285.23708526 -58.69540068 292.41042529 -60.43041992 299.57226562 C-61.31974573 303.31325833 -61.64941406 306.28294126 -61.64941406 310.19287109 C-40.19941406 310.19287109 -18.74941406 310.19287109 3.35058594 310.19287109 C4.45015625 304.56224609 5.54972656 298.93162109 6.68261719 293.13037109 C7.97989373 286.4883471 9.2773138 279.84635116 10.5748024 273.20436859 C10.96594188 271.20207633 11.35707301 269.19978243 11.74819565 267.19748688 C19.98320918 225.03993646 19.98320918 225.03993646 23.78808594 205.68505859 C24.03999191 204.40358948 24.29189789 203.12212036 24.55143738 201.80181885 C25.68290347 196.04781628 26.8155005 190.29403845 27.94946289 184.54052734 C29.08833272 178.75897936 30.2221331 172.97646121 31.35058594 167.19287109 C31.53893005 166.22869263 31.72727417 165.26451416 31.92132568 164.27111816 C32.4777652 161.4149149 33.03010004 158.55794941 33.58105469 155.70068359 C33.82774651 154.43597733 33.82774651 154.43597733 34.079422 153.14572144 C35.03247477 148.17332403 35.77541294 143.22338099 36.35058594 138.19287109 C44.71442426 138.23118828 53.07773754 138.29092037 61.44120979 138.37677383 C65.32621893 138.41600774 69.21100958 138.44831245 73.09619141 138.46386719 C76.85718243 138.47919495 80.61757175 138.5139174 84.37829208 138.56118011 C85.80128575 138.57583014 87.22436541 138.58390251 88.64743423 138.58475494 C99.61945383 138.59791702 111.40697599 139.14749737 120.35058594 146.19287109 C121.01058594 146.19287109 121.67058594 146.19287109 122.35058594 146.19287109 C127.02092022 157.71302899 126.11527322 168.8987702 123.40136719 180.85693359 C120.76283064 193.0138727 118.36190775 205.21107074 115.99511719 217.42333984 C115.80078598 218.42514723 115.60645477 219.42695461 115.40623474 220.4591198 C114.40015534 225.64683388 113.3957882 230.83487647 112.39282227 236.02319336 C111.36362184 241.34655198 110.3305687 246.66915495 109.29651356 251.99157238 C108.49088321 256.14106177 107.68757727 260.29099866 106.88492393 264.44106483 C106.50498464 266.40377092 106.1242794 268.36632892 105.74274635 270.32872581 C103.89729149 279.82607139 102.07786632 289.29847886 100.74662781 298.88398743 C100.35058594 301.19287109 100.35058594 301.19287109 99.35058594 303.19287109 C99.35058594 305.50287109 99.35058594 307.81287109 99.35058594 310.19287109 C121.13058594 310.19287109 142.91058594 310.19287109 165.35058594 310.19287109 C166.33800781 304.94896484 167.32542969 299.70505859 168.34277344 294.30224609 C172.13611765 274.21866973 176.03470152 254.1561843 179.95678711 234.09741211 C180.65358722 230.53209089 181.34914364 226.96652749 182.04469681 223.40096283 C182.89861568 219.02418058 183.75341519 214.64757053 184.60839844 210.27099609 C184.85476925 209.00940926 184.85476925 209.00940926 185.10611725 207.72233582 C186.69099392 199.61017345 188.28232107 191.49965259 189.91992188 183.39794922 C190.15290985 182.2447821 190.38589783 181.09161499 190.62594604 179.90350342 C191.04310383 177.8466457 191.46285395 175.79031085 191.88601685 173.73468018 C195.88833402 154.03776352 197.30291107 132.89623262 186.35058594 115.19287109 C173.603279 98.44299679 151.76220342 92.61472029 131.77657223 89.87841225 C123.40030766 88.83609054 115.03133359 88.94376753 106.60449219 88.99755859 C104.85473291 89.00129985 103.1049715 89.00414154 101.35520935 89.00613403 C96.80315114 89.01368304 92.25122546 89.03325383 87.69921875 89.05554199 C83.03289583 89.07619125 78.36655099 89.08517608 73.70019531 89.09521484 C64.58360139 89.11651015 55.46710479 89.15053722 46.35058594 89.19287109 C47.32542948 84.10181052 48.30410772 79.01150808 49.28637695 73.921875 C49.62012039 72.18965724 49.95280745 70.4572356 50.28442383 68.72460938 C50.76074332 66.23692581 51.24083354 63.74999563 51.72167969 61.26318359 C51.86963486 60.48605011 52.01759003 59.70891663 52.17002869 58.90823364 C53.23671423 53.42061451 53.23671423 53.42061451 54.35058594 51.19287109 C54.68258234 49.27373425 54.97563661 47.34779235 55.24902344 45.41943359 C56.46221588 37.24670306 58.06304895 29.16644232 59.67089844 21.06396484 C59.88746094 19.95923828 60.10402344 18.85451172 60.32714844 17.71630859 C60.5238916 16.72550293 60.72063477 15.73469727 60.92333984 14.71386719 C61.43413219 12.12605775 61.43413219 12.12605775 61.35058594 9.19287109 C39.90058594 9.19287109 18.45058594 9.19287109 -3.64941406 9.19287109 Z M-276.64941406 89.19287109 C-277.13460196 91.11557207 -277.61857603 93.03857939 -278.10203552 94.9617157 C-278.50649981 96.56797837 -278.50649981 96.56797837 -278.91913509 98.20669079 C-279.7309233 101.52617015 -280.39974955 104.84786639 -280.99707031 108.21240234 C-281.24729534 109.58974405 -281.49887029 110.96684088 -281.75146484 112.34375 C-281.96092743 113.48580902 -281.96092743 113.48580902 -282.17462158 114.65093994 C-283.12875319 119.75914397 -284.14083334 124.85613216 -285.14550781 129.95458984 C-285.37704056 131.13052704 -285.6085733 132.30646423 -285.84712219 133.51803589 C-286.33787528 136.00918606 -286.82889566 138.50028359 -287.32015991 140.99133301 C-288.10190863 144.95642476 -288.88230086 148.92178139 -289.66235352 152.88720703 C-292.17339437 165.64919044 -294.69050229 178.40993708 -297.22239685 191.1678009 C-298.19542236 196.07112323 -299.16600589 200.97492806 -300.13599491 205.87885189 C-300.79860701 209.22778961 -301.46267566 212.57642499 -302.13009644 215.92440796 C-302.87298362 219.65386059 -303.61127605 223.3841967 -304.34863281 227.11474609 C-304.56787415 228.20900406 -304.78711548 229.30326202 -305.01300049 230.43067932 C-306.1775552 236.34881439 -307.04656951 242.19203105 -307.64941406 248.19287109 C-308.04593219 250.07696361 -308.48105136 251.95352072 -308.96191406 253.81787109 C-310.443386 259.96669878 -311.53818273 266.14417424 -312.58691406 272.38037109 C-313.89925925 280.14534136 -315.38617806 287.82623518 -317.15136719 295.5 C-318.62053108 301.92973575 -319.86384541 308.39143918 -321.0769043 314.8737793 C-322.39974896 321.92916517 -323.79415894 328.9684775 -325.21191406 336.00537109 C-326.83316486 344.06168421 -328.40651949 352.12198797 -329.89160156 360.20458984 C-330.46496476 363.27753227 -331.08587491 366.3388762 -331.71972656 369.39990234 C-331.90462646 370.29862061 -332.08952637 371.19733887 -332.2800293 372.12329102 C-332.64168084 373.87320248 -333.00810798 375.62213626 -333.38012695 377.36987305 C-333.6275061 378.57003052 -333.6275061 378.57003052 -333.87988281 379.79443359 C-334.0283667 380.49906738 -334.17685059 381.20370117 -334.32983398 381.9296875 C-334.78923514 384.80210856 -334.78923514 384.80210856 -334.64941406 390.19287109 C-313.19941406 390.19287109 -291.74941406 390.19287109 -269.64941406 390.19287109 C-264.60276479 366.69311367 -264.60276479 366.69311367 -259.89941406 343.13037109 C-259.60668884 341.6166521 -259.31371887 340.10298043 -259.02050781 338.58935547 C-258.46726073 335.7286908 -257.9181193 332.86730204 -257.37402344 330.00488281 C-256.92171731 327.62539904 -256.46537356 325.24667496 -256.00292969 322.86914062 C-255.81923828 321.90476074 -255.63554687 320.94038086 -255.44628906 319.94677734 C-255.21184082 318.73163452 -255.21184082 318.73163452 -254.97265625 317.49194336 C-254.62664075 315.03089508 -254.6281318 312.67510004 -254.64941406 310.19287109 C-253.7416925 310.19731232 -252.83397095 310.20175354 -251.89874268 310.20632935 C-243.25189173 310.24677053 -234.60507354 310.27703778 -225.95814896 310.29649544 C-221.51502628 310.30683575 -217.07198316 310.32081132 -212.62890625 310.34375 C-165.00545572 310.58292844 -124.4656456 306.48656044 -88.20410156 272.74755859 C-61.66684454 246.21030158 -48.57371137 209.9088685 -48.33691406 172.75537109 C-48.33691406 151.037676 -54.57493142 131.36965798 -70.14550781 115.67724609 C-76.1638196 109.97478897 -82.41902634 105.24563885 -89.64941406 101.19287109 C-90.44089844 100.74298828 -91.23238281 100.29310547 -92.04785156 99.82958984 C-98.07531124 96.7588178 -104.35944865 95.09255911 -110.89941406 93.50537109 C-112.14827393 93.20155518 -112.14827393 93.20155518 -113.42236328 92.89160156 C-125.98896845 90.01230487 -138.33518578 88.89209919 -151.20385742 88.96582031 C-152.58536267 88.96638652 -153.96686851 88.9660638 -155.34837341 88.9649353 C-159.04576909 88.96436894 -162.74303106 88.97600507 -166.44039607 88.99008322 C-170.32407219 89.00271205 -174.20775244 89.00377054 -178.09144592 89.00613403 C-185.4220807 89.01231351 -192.75265476 89.02867571 -200.08326298 89.04883301 C-208.43894509 89.07130298 -216.79463032 89.08221315 -225.15033519 89.09222388 C-242.31672974 89.1130457 -259.48306545 89.14815181 -276.64941406 89.19287109 Z " fill="#F6F6F7" transform="translate(577.6494140625,417.80712890625)"/>
<path d="M0 0 C7.73828489 -0.09385802 15.47642942 -0.16433833 23.21514511 -0.20724869 C26.81095638 -0.22787314 30.40637042 -0.25571112 34.00195312 -0.30175781 C77.99068074 -0.84977066 77.99068074 -0.84977066 92 10 C92.928125 10.5775 93.85625 11.155 94.8125 11.75 C103.54240567 20.72933154 103.41254433 32.11054238 103.44873047 43.82226562 C103.10982452 67.08770118 96.18448741 91.02140427 79.4140625 107.84375 C62.47066183 122.97766128 39.24509061 126.19743353 17.30859375 126.09765625 C16.12274185 126.0962413 14.93688995 126.09482635 13.71510315 126.09336853 C9.95587561 126.08780509 6.19670931 126.0752594 2.4375 126.0625 C-0.12304601 126.05748027 -2.68359296 126.0529182 -5.24414062 126.04882812 C-11.49611437 126.03784765 -17.74805281 126.02114623 -24 126 C-23.6812173 123.91431585 -23.36185067 121.82872094 -23.04223633 119.74316406 C-22.86445145 118.58173889 -22.68666656 117.42031372 -22.50349426 116.22369385 C-21.95626541 112.71998304 -21.34786732 109.23414659 -20.6875 105.75 C-20.50465454 104.78453247 -20.50465454 104.78453247 -20.31811523 103.79956055 C-18.90143711 96.38061836 -17.39992234 88.97826009 -15.91137695 81.57348633 C-14.53232503 74.70102954 -13.18338931 67.82375951 -11.875 60.9375 C-11.71354492 60.08800781 -11.55208984 59.23851562 -11.38574219 58.36328125 C-10.61913699 54.31459838 -9.86299682 50.26422078 -9.12109375 46.2109375 C-8.98396973 45.46593994 -8.8468457 44.72094238 -8.70556641 43.95336914 C-8.33868156 41.95510004 -7.97582626 39.95609228 -7.61328125 37.95703125 C-7 35 -7 35 -6 33 C-5.69823019 31.2132837 -5.43438711 29.42012309 -5.1875 27.625 C-4.29738478 21.5466833 -3.14880486 15.54292592 -1.92578125 9.5234375 C-1.74035767 8.60393311 -1.55493408 7.68442871 -1.3638916 6.73706055 C-0.9107527 4.49106771 -0.45609145 2.24539479 0 0 Z " fill="#6E81B6" transform="translate(869,555)"/>
<path d="M0 0 C7.82468175 -0.07011639 15.6492872 -0.12311925 23.47420597 -0.15543652 C27.1093019 -0.17096253 30.74417985 -0.19195512 34.37915039 -0.22631836 C37.89997372 -0.25938674 41.42059005 -0.27695062 44.94155693 -0.28463173 C46.91033137 -0.29271293 48.8790248 -0.31605209 50.84767151 -0.33988953 C66.24470585 -0.34270277 83.71350765 1.97169063 95.3125 13.0390625 C105.09032963 24.40126267 103.84854148 38.85011941 103 53 C102.2625233 59.15246763 100.75203783 65.06718848 99 71 C98.71116943 72.01078613 98.71116943 72.01078613 98.41650391 73.04199219 C93.41982182 90.24861171 84.95896653 105.82901018 69 115 C47.55911705 126.40744443 25.69262735 126.2887441 2.0625 126.125 C-0.47069958 126.11494955 -3.00390303 126.10582736 -5.53710938 126.09765625 C-11.69149167 126.07580786 -17.84572741 126.0424941 -24 126 C-23.85670508 124.40371083 -23.70874888 122.80783964 -23.55883789 121.2121582 C-23.47694717 120.32341507 -23.39505646 119.43467194 -23.3106842 118.51899719 C-22.9042267 115.2234794 -21.93480419 112.18385339 -21 109 C-20.27026068 105.11755308 -19.6721619 101.21536541 -19.0625 97.3125 C-17.89717893 90.05889319 -16.64748029 82.93894578 -14.69725037 75.84835815 C-13.97810352 72.91055004 -13.50364277 70.01346699 -13.07446289 67.02001953 C-12.03885357 60.09796514 -10.76706527 53.23729568 -9.43359375 46.3671875 C-9.19463882 45.12752228 -8.9556839 43.88785706 -8.70948792 42.61062622 C-8.08208593 39.35978915 -7.45236455 36.10941219 -6.82177734 32.85919189 C-6.30600739 30.1960462 -5.79359611 27.53225864 -5.28117275 24.86846733 C-4.6673447 21.68014777 -4.05035717 18.49244032 -3.43359375 15.3046875 C-3.08982948 13.51887772 -3.08982948 13.51887772 -2.73912048 11.69699097 C-2.52542313 10.59799469 -2.31172577 9.49899841 -2.09155273 8.36669922 C-1.90439194 7.39997284 -1.71723114 6.43324646 -1.5243988 5.43722534 C-1 3 -1 3 0 0 Z " fill="#6F81B6" transform="translate(357,555)"/>
<path d="M0 0 C1.20513245 -0.00708481 2.41026489 -0.01416962 3.6519165 -0.02146912 C4.98986854 -0.01917503 6.32782022 -0.01666529 7.66577148 -0.01396179 C9.07379426 -0.01830907 10.48181466 -0.02349227 11.88983154 -0.02944946 C15.72141249 -0.0428675 19.55289491 -0.04341369 23.38449478 -0.04088616 C26.59390649 -0.03981565 29.80329835 -0.04470329 33.0127058 -0.04949158 C40.60345632 -0.0606022 48.19415739 -0.06101927 55.78491211 -0.05497742 C63.57302625 -0.04897244 71.36095814 -0.06115581 79.14904118 -0.08254749 C85.85933349 -0.10029019 92.56956854 -0.10614402 99.27988338 -0.10290974 C103.27616757 -0.10111247 107.27232257 -0.10357234 111.26858521 -0.11762428 C127.46173948 -0.16967665 143.31303869 -0.16948604 159.22436523 3.26069641 C159.94432175 3.41031012 160.66427826 3.55992382 161.40605164 3.71407127 C180.55855536 7.70016871 197.21149483 16.48176375 211.22436523 30.26069641 C212.27430664 31.29130188 212.27430664 31.29130188 213.34545898 32.34272766 C226.7123672 46.38710101 234.06526784 65.99002428 234.22436523 85.26069641 C234.29613247 87.07454434 234.36917222 88.88834213 234.44311523 90.70210266 C235.72157249 132.2370206 220.44224037 169.20380879 192.22436523 199.26069641 C175.100476 217.05914635 151.81976313 230.08582616 127.59936523 234.88569641 C126.15110352 235.19120422 126.15110352 235.19120422 124.67358398 235.50288391 C110.36593473 238.42052219 96.46404257 239.55876906 81.91186523 239.45600891 C80.3204771 239.45226524 78.72908661 239.4494247 77.13769531 239.44743347 C73.00815129 239.43990338 68.87875456 239.42035033 64.74926758 239.39802551 C60.51182038 239.37733405 56.2743487 239.36838265 52.03686523 239.35835266 C43.76596533 239.33709102 35.49518375 239.30308868 27.22436523 239.26069641 C27.11334473 240.44768127 27.00232422 241.63466614 26.88793945 242.85762024 C26.14262164 249.53451369 24.85482655 256.11229948 23.60717773 262.70991516 C23.34671507 264.09514707 23.08628889 265.48038585 22.82589722 266.8656311 C22.28207827 269.75309914 21.73526041 272.63998195 21.18676758 275.52656555 C20.48685121 279.21336278 19.79845889 282.90221283 19.11276436 286.59167767 C18.58005892 289.44709645 18.03925666 292.30093867 17.49624252 295.15441322 C17.23895092 296.51373282 16.98460036 297.87361272 16.73334122 299.23406029 C16.38097954 301.13736221 16.01604089 303.03832252 15.65063477 304.93916321 C15.34538376 306.55724129 15.34538376 306.55724129 15.03396606 308.20800781 C13.74182897 313.08015225 12.47606015 316.42623314 8.22436523 319.26069641 C5.11915588 319.52812195 5.11915588 319.52812195 1.24609375 319.55122375 C0.54007019 319.55794098 -0.16595337 319.5646582 -0.89337158 319.57157898 C-3.22789542 319.59058112 -5.56213215 319.59448412 -7.89672852 319.59663391 C-9.51953754 319.60305988 -11.1423454 319.60978809 -12.76515198 319.61680603 C-16.16719245 319.62878402 -19.56913133 319.63248628 -22.97119141 319.63130188 C-27.33055987 319.63109856 -31.68927736 319.6584112 -36.04849148 319.6928463 C-39.40024305 319.7150826 -42.75183708 319.71914045 -46.10365486 319.71808243 C-47.71082874 319.72044292 -49.31800666 319.7292917 -50.92510796 319.74474716 C-53.17319233 319.7643439 -55.41986161 319.75859568 -57.66796875 319.74653625 C-58.94687485 319.74938629 -60.22578094 319.75223633 -61.54344177 319.75517273 C-65.33225528 319.17554195 -66.46653056 318.24952268 -68.77563477 315.26069641 C-72.63536768 307.54123059 -67.65320253 293.5396177 -66.00219727 285.42866516 C-65.71898305 284.00791786 -65.43647046 282.58703054 -65.15460205 281.16601562 C-64.55558908 278.15344688 -63.95194865 275.14185986 -63.34442139 272.1309967 C-62.3883593 267.39267964 -61.44271674 262.65232057 -60.4987793 257.91157532 C-59.37418683 252.2667229 -58.24734697 246.6223298 -57.11726952 240.97857285 C-54.49457472 227.87877378 -51.9129354 214.77109426 -49.34222412 201.66099548 C-48.67233537 198.2463128 -48.00082259 194.83195343 -47.32885742 191.41767883 C-45.22096849 180.69733742 -43.12960052 169.97468593 -41.12521362 159.23442078 C-40.12886492 153.94176952 -38.9975484 148.69308236 -37.77563477 143.44819641 C-35.90166247 135.26672219 -34.53847857 127.03228742 -33.2097168 118.74653625 C-32.23704322 112.76685913 -31.07280521 106.93567497 -29.46925354 101.08869934 C-28.77258559 98.24826439 -28.31129253 95.4583911 -27.90039062 92.56343079 C-26.62371618 84.03437902 -25.01545073 75.57534445 -23.40454102 67.10444641 C-23.24463118 66.26206924 -23.08472134 65.41969208 -22.91996574 64.55178833 C-22.07642357 60.11046487 -21.2298295 55.66973533 -20.38085938 51.22944641 C-19.50734867 46.65707107 -18.64532105 42.08260581 -17.785676 37.50760651 C-17.11874711 33.97016095 -16.44311588 30.43441773 -15.76511955 26.89907837 C-15.44326909 25.2124491 -15.12473321 23.52518371 -14.80963326 21.83728027 C-14.3694724 19.48370487 -13.91696577 17.13282084 -13.46142578 14.78218079 C-13.27192604 13.74574432 -13.27192604 13.74574432 -13.07859802 12.68836975 C-12.28457722 8.673655 -11.20480881 5.56928548 -8.77563477 2.26069641 C-5.32970312 -0.03659135 -4.05787412 0.00793957 0 0 Z M1.22436523 9.26069641 C-1.57337253 22.60727281 -4.34801473 35.95586783 -6.96704102 49.33882141 C-7.24164712 50.73636862 -7.5163855 52.13388984 -7.79124451 53.53138733 C-8.49937024 57.13335145 -9.2059646 60.73561399 -9.91210938 64.33796692 C-10.90311783 69.39211002 -11.89620487 74.4458451 -12.88925171 79.49958801 C-13.43595424 82.28190562 -13.98179947 85.0643894 -14.52700806 87.84700012 C-15.67785299 93.71579835 -16.83522806 99.58289571 -18.03295898 105.44233704 C-18.21865952 106.35376465 -18.40436005 107.26519226 -18.59568787 108.20423889 C-18.92468482 109.81243663 -19.25685492 111.41999128 -19.59339905 113.02662659 C-20.49404411 117.43076107 -21.11556388 121.80113229 -21.55192566 126.27584839 C-21.86565035 129.05935521 -22.48277131 131.73006395 -23.15063477 134.44819641 C-26.32548304 147.05698796 -26.32548304 147.05698796 -28.27563477 159.88569641 C-28.57752599 163.15914442 -29.22705304 166.1505477 -30.08813477 169.32319641 C-31.67260709 175.35490747 -32.67061771 181.42168214 -33.65063477 187.57319641 C-35.12736186 196.80418008 -36.93690605 205.90520479 -38.98779297 215.02436829 C-40.4292628 221.49231641 -41.61787929 227.95863258 -42.63960266 234.50465393 C-43.43678998 239.49156487 -44.4316724 244.39604732 -45.56860352 249.31538391 C-47.87497815 259.50560301 -49.91653172 269.7442667 -51.92260742 279.99726868 C-52.53390812 283.11539722 -53.15273427 286.23197776 -53.77172852 289.34858704 C-54.16411145 291.34654444 -54.55605529 293.34458814 -54.94750977 295.34272766 C-55.13182556 296.2666481 -55.31614136 297.19056854 -55.50604248 298.14248657 C-55.75695648 299.4362043 -55.75695648 299.4362043 -56.01293945 300.75605774 C-56.16075867 301.50784805 -56.30857788 302.25963837 -56.46087646 303.03421021 C-56.89228321 305.71105444 -56.89228321 305.71105444 -56.77563477 310.26069641 C-34.99563477 310.26069641 -13.21563477 310.26069641 9.22436523 310.26069641 C11.69936523 296.89569641 11.69936523 296.89569641 14.22436523 283.26069641 C15.10982655 278.58863289 15.9976751 273.91768599 16.90014648 269.24897766 C17.1150322 268.13298691 17.32991791 267.01699615 17.55131531 265.8671875 C18.21226368 262.43568261 18.87452557 259.004433 19.53686523 255.57319641 C19.99593868 253.19105212 20.45492334 250.80889071 20.91381836 248.42671204 C22.01631817 242.70451062 23.11988444 236.98251577 24.22436523 231.26069641 C25.21898773 231.25927139 26.21361023 231.25784637 27.2383728 231.25637817 C36.73711791 231.23951083 46.23544541 231.19614995 55.73396873 231.12860584 C60.61412752 231.09470702 65.49398563 231.06928491 70.37426758 231.06513977 C115.88617685 231.01300596 157.04264974 225.31359176 190.69262695 191.83149719 C203.16199851 179.04413083 212.26560711 164.66888776 219.22436523 148.26069641 C219.55202881 147.51626282 219.87969238 146.77182922 220.21728516 146.00483704 C222.95545378 139.55118026 224.55701364 133.12643953 225.91186523 126.26069641 C226.22994141 124.73702454 226.22994141 124.73702454 226.55444336 123.18257141 C231.15106619 100.56196694 232.38767705 75.17330055 221.22436523 54.26069641 C220.75514648 53.32999329 220.28592773 52.39929016 219.80249023 51.44038391 C209.68676835 32.60587316 191.22140395 20.69284048 171.16186523 14.51069641 C151.2845389 9.03168807 131.28882912 8.83828655 110.8250196 8.9565146 C106.957404 8.97556535 103.08977748 8.97705376 99.22212219 8.98059082 C91.93414908 8.98982945 84.64631472 9.01432941 77.35840207 9.04463929 C69.04612198 9.07844187 60.73383444 9.09473356 52.42150247 9.10972559 C35.35571047 9.14088868 18.29005263 9.19348557 1.22436523 9.26069641 Z " fill="#F6F7F8" transform="translate(811.775634765625,497.7393035888672)"/>
<path d="M0 0 C7.73828489 -0.09385802 15.47642942 -0.16433833 23.21514511 -0.20724869 C26.81095638 -0.22787314 30.40637042 -0.25571112 34.00195312 -0.30175781 C77.99068074 -0.84977066 77.99068074 -0.84977066 92 10 C92.928125 10.5775 93.85625 11.155 94.8125 11.75 C103.54240567 20.72933154 103.41254433 32.11054238 103.44873047 43.82226562 C103.10982452 67.08770118 96.18448741 91.02140427 79.4140625 107.84375 C62.47066183 122.97766128 39.24509061 126.19743353 17.30859375 126.09765625 C16.12274185 126.0962413 14.93688995 126.09482635 13.71510315 126.09336853 C9.95587561 126.08780509 6.19670931 126.0752594 2.4375 126.0625 C-0.12304601 126.05748027 -2.68359296 126.0529182 -5.24414062 126.04882812 C-11.49611437 126.03784765 -17.74805281 126.02114623 -24 126 C-23.6812173 123.91431585 -23.36185067 121.82872094 -23.04223633 119.74316406 C-22.86445145 118.58173889 -22.68666656 117.42031372 -22.50349426 116.22369385 C-21.95626541 112.71998304 -21.34786732 109.23414659 -20.6875 105.75 C-20.50465454 104.78453247 -20.50465454 104.78453247 -20.31811523 103.79956055 C-18.90143711 96.38061836 -17.39992234 88.97826009 -15.91137695 81.57348633 C-14.53232503 74.70102954 -13.18338931 67.82375951 -11.875 60.9375 C-11.71354492 60.08800781 -11.55208984 59.23851562 -11.38574219 58.36328125 C-10.61913699 54.31459838 -9.86299682 50.26422078 -9.12109375 46.2109375 C-8.98396973 45.46593994 -8.8468457 44.72094238 -8.70556641 43.95336914 C-8.33868156 41.95510004 -7.97582626 39.95609228 -7.61328125 37.95703125 C-7 35 -7 35 -6 33 C-5.69823019 31.2132837 -5.43438711 29.42012309 -5.1875 27.625 C-4.29738478 21.5466833 -3.14880486 15.54292592 -1.92578125 9.5234375 C-1.74035767 8.60393311 -1.55493408 7.68442871 -1.3638916 6.73706055 C-0.9107527 4.49106771 -0.45609145 2.24539479 0 0 Z M8 9 C5.94236047 16.93934074 4.14613873 24.88956194 2.58984375 32.94140625 C2.37687149 34.03033676 2.16389923 35.11926727 1.94447327 36.24119568 C1.27254209 39.68106468 0.60503118 43.12177478 -0.0625 46.5625 C-0.51339924 48.87179804 -0.96456901 51.18104328 -1.41601562 53.49023438 C-1.85180209 55.7239116 -2.28735679 57.95763406 -2.72265625 60.19140625 C-2.92166031 61.2125502 -3.12066437 62.23369415 -3.32569885 63.28578186 C-4.26221527 68.1141164 -5.17650338 72.94489665 -6.0480957 77.78540039 C-6.80071626 81.95348616 -7.62128955 86.10013881 -8.5078125 90.2421875 C-8.77207031 91.49257813 -9.03632812 92.74296875 -9.30859375 94.03125 C-9.71969907 95.96678893 -10.13086744 97.90231792 -10.54638672 99.83691406 C-10.95472824 101.74187251 -11.35635654 103.64826609 -11.7578125 105.5546875 C-11.9964502 106.67343262 -12.23508789 107.79217773 -12.48095703 108.94482422 C-12.95038602 111.70796363 -13.10342093 114.20633391 -13 117 C-7.11829326 117.10074733 -1.23711535 117.17233007 4.64526367 117.21972656 C6.63591281 117.23953561 8.62650631 117.26659049 10.61694336 117.30175781 C32.32840664 117.67505225 56.22194014 116.45843718 73 101 C73.68835938 100.36578125 74.37671875 99.7315625 75.0859375 99.078125 C85.7427878 88.21712048 89.43307619 73.34139202 93 59 C93.26937378 58.07852173 93.26937378 58.07852173 93.54418945 57.13842773 C94.6122223 52.12776906 94.27201223 46.8514596 94.3125 41.75 C94.34150391 40.54730469 94.37050781 39.34460938 94.40039062 38.10546875 C94.4582269 29.99949296 93.79659784 24.05980735 88.140625 18.01171875 C87.51671875 17.57472656 86.8928125 17.13773438 86.25 16.6875 C85.63640625 16.23761719 85.0228125 15.78773438 84.390625 15.32421875 C78.31935387 11.96121072 72.3745335 10.45940913 65.54296875 9.8203125 C64.32966133 9.70032394 64.32966133 9.70032394 63.09184265 9.57791138 C52.18529121 8.61255472 41.250471 8.78580661 30.3125 8.875 C28.1347698 8.8850633 25.95703503 8.89418315 23.77929688 8.90234375 C18.51942904 8.9240609 13.25973697 8.95726588 8 9 Z " fill="#F5F6F7" transform="translate(869,555)"/>
<path d="M0 0 C7.82468175 -0.07011639 15.6492872 -0.12311925 23.47420597 -0.15543652 C27.1093019 -0.17096253 30.74417985 -0.19195512 34.37915039 -0.22631836 C37.89997372 -0.25938674 41.42059005 -0.27695062 44.94155693 -0.28463173 C46.91033137 -0.29271293 48.8790248 -0.31605209 50.84767151 -0.33988953 C66.24470585 -0.34270277 83.71350765 1.97169063 95.3125 13.0390625 C105.09032963 24.40126267 103.84854148 38.85011941 103 53 C102.2625233 59.15246763 100.75203783 65.06718848 99 71 C98.71116943 72.01078613 98.71116943 72.01078613 98.41650391 73.04199219 C93.41982182 90.24861171 84.95896653 105.82901018 69 115 C47.55911705 126.40744443 25.69262735 126.2887441 2.0625 126.125 C-0.47069958 126.11494955 -3.00390303 126.10582736 -5.53710938 126.09765625 C-11.69149167 126.07580786 -17.84572741 126.0424941 -24 126 C-23.85670508 124.40371083 -23.70874888 122.80783964 -23.55883789 121.2121582 C-23.47694717 120.32341507 -23.39505646 119.43467194 -23.3106842 118.51899719 C-22.9042267 115.2234794 -21.93480419 112.18385339 -21 109 C-20.27026068 105.11755308 -19.6721619 101.21536541 -19.0625 97.3125 C-17.89717893 90.05889319 -16.64748029 82.93894578 -14.69725037 75.84835815 C-13.97810352 72.91055004 -13.50364277 70.01346699 -13.07446289 67.02001953 C-12.03885357 60.09796514 -10.76706527 53.23729568 -9.43359375 46.3671875 C-9.19463882 45.12752228 -8.9556839 43.88785706 -8.70948792 42.61062622 C-8.08208593 39.35978915 -7.45236455 36.10941219 -6.82177734 32.85919189 C-6.30600739 30.1960462 -5.79359611 27.53225864 -5.28117275 24.86846733 C-4.6673447 21.68014777 -4.05035717 18.49244032 -3.43359375 15.3046875 C-3.08982948 13.51887772 -3.08982948 13.51887772 -2.73912048 11.69699097 C-2.52542313 10.59799469 -2.31172577 9.49899841 -2.09155273 8.36669922 C-1.90439194 7.39997284 -1.71723114 6.43324646 -1.5243988 5.43722534 C-1 3 -1 3 0 0 Z M7 9 C4.38681496 22.34210567 1.7786693 35.68518553 -0.82302856 49.02953625 C-2.03122911 55.22566448 -3.24116982 61.42144233 -4.45507812 67.61645508 C-5.62626798 73.59379833 -6.79289881 79.57201483 -7.95635986 85.55086708 C-8.40127958 87.83295773 -8.84784745 90.11472769 -9.29608154 92.39616966 C-9.92309427 95.58904746 -10.54426348 98.78301015 -11.1640625 101.97729492 C-11.35107727 102.92244461 -11.53809204 103.8675943 -11.73077393 104.84138489 C-11.89905701 105.71491608 -12.06734009 106.58844727 -12.24072266 107.4884491 C-12.46195297 108.62087178 -12.46195297 108.62087178 -12.68765259 109.77617168 C-13.02936145 112.2090455 -13.05249524 114.5463844 -13 117 C-7.24239917 117.10068444 -1.48533705 117.17230203 4.27294922 117.21972656 C6.22193349 117.23954566 8.17086082 117.26660903 10.11962891 117.30175781 C31.66563352 117.67995304 57.42077318 115.85306162 74.1875 100.5 C88.83536349 84.85752849 94.40699162 61.61204778 94.5625 40.75 C94.58413208 39.35974609 94.58413208 39.35974609 94.60620117 37.94140625 C94.49834184 30.60432456 93.14548298 23.2501386 87.88671875 17.81640625 C87.16097656 17.40261719 86.43523437 16.98882813 85.6875 16.5625 C84.50220703 15.87607422 84.50220703 15.87607422 83.29296875 15.17578125 C72.60550008 9.69549493 63.33612705 8.70416225 51.43359375 8.8046875 C50.15895767 8.8075174 48.88432159 8.81034729 47.57106018 8.81326294 C44.2123946 8.8225101 40.8540104 8.84042129 37.49542236 8.8626709 C34.05621752 8.88327532 30.61698339 8.89229559 27.17773438 8.90234375 C20.45174639 8.92431642 13.72588941 8.95772805 7 9 Z " fill="#F6F6F7" transform="translate(357,555)"/>
<path d="M0 0 C0.33 0 0.66 0 1 0 C0.67 2.97 0.34 5.94 0 9 C-0.66 8.34 -1.32 7.68 -2 7 C-2.99 7.495 -2.99 7.495 -4 8 C-2.87548273 5.0280615 -1.77706209 2.66559313 0 0 Z " fill="#92A0C8" transform="translate(517,668)"/>
</svg>
